<svg width="1150" height="1299" viewBox="0 0 1150 1299" fill="none" xmlns="http://www.w3.org/2000/svg">
<path d="M989.666 1174.86C1026.29 1158.42 1043.54 1140.95 1055.64 1129.34C1088.8 1097.65 1122.82 1048.87 1135.51 1016.81C1151.84 975.461 1158.14 919.52 1132.09 838.946C1126.51 821.692 1119.34 804.872 1111.96 788.323C1101.6 765.1 1067.04 710.842 1049.89 681.813C1027.86 644.483 991.891 590.659 976.319 518.766C961.723 451.269 970.35 397.824 972.955 383.391C982.287 331.466 1002.09 292.345 1016.52 268.58C1016.52 268.58 983.155 267.441 894.388 332.822C851.795 364.184 740.131 440.363 711.917 592.341C709.204 607.099 705.134 653.382 703.615 664.071C702.801 663.908 673.176 639.112 657.875 606.719C636.389 561.196 649.085 519.797 656.79 474.003C658.309 464.942 714.087 322.784 710.397 265.759C696.507 50.2434 570.899 0 570.899 0C570.899 0 568.403 49.4295 566.666 64.2421C564.876 79.8144 561.24 95.3866 556.411 110.253C522.174 215.352 399.007 350.89 380.613 370.098C344.423 407.753 312.519 448.122 294.559 497.822C289.025 513.123 284.25 528.858 280.995 544.81C277.739 560.491 274.646 576.769 275.46 592.612C277.088 625.656 291.521 706.338 338.346 732.165C339.432 730.972 272.259 651.103 334.819 522.239C347.57 496.032 362.003 471.29 378.66 447.416C404.216 410.792 470.52 348.503 479.364 338.953C513.439 302.166 545.939 262.774 584.192 178.022C600.578 141.723 610.778 86.1626 611.918 85.5658C616.801 92.7279 711.591 186.27 628.304 428.263C621.413 448.284 589.075 511.658 604.268 585.83C607.36 600.914 610.29 616.757 617.344 630.105C630.311 654.467 647.566 676.17 668.022 694.998C690.756 715.942 714.25 736.018 736.333 757.613C756.788 777.634 773.12 800.965 781.802 828.637C787.987 848.55 802.746 888.864 790.158 937.371C781.151 972.151 754.727 1047.9 715.335 1081.92C621.142 1163.3 536.662 1162.65 447.678 1128.2C403.782 1111.22 348.927 1056.31 339.594 1008.4C336.881 994.614 335.145 980.453 334.874 966.454C334.385 936.503 346.16 878.229 350.5 866.401C378.226 790.33 458.638 760.217 477.954 760.054C492.061 759.946 626.622 741.389 665.525 839.869C668.564 847.573 689.399 902.32 678.547 942.417C662.758 1000.85 615.662 1033.9 588.912 1042.63C530.964 1061.51 448.383 1030.7 450.39 956.145C450.716 944.642 462.001 881.919 517.725 874.323C588.587 864.719 589.292 920.985 575.077 945.022C566.178 960.051 533.514 963.849 533.514 963.849C533.514 963.849 539.917 972.639 570.465 974.701C601.989 976.817 651.798 897.111 584.463 842.907C574.534 834.877 558.527 832.815 544.909 831.241C513.493 827.606 484.736 833.195 458.909 854.735C428.795 879.857 412.952 910.947 409.588 949.145C406.821 980.832 410.673 1010.51 431.237 1037.04C507.036 1134.66 698.081 1094.61 717.885 941.983C729.442 852.728 705.297 766.077 577.409 726.251C551.637 718.221 495.533 704.982 491.518 679.209C462.002 488.381 547.35 454.416 600.524 331.303C640.621 238.466 615.825 212.368 615.825 212.368C615.825 212.368 597.594 278.184 563.899 330.923C551.582 350.239 519.244 383.662 506.168 402.49C439.918 497.931 417.13 578.396 426.95 638.081C431.345 664.722 440.244 689.735 453.646 713.175C459.289 723.104 458.095 725.817 447.785 730.049C434.872 735.312 421.253 739.327 409.316 746.272C391.574 756.473 374.102 767.65 358.259 780.564C347.244 789.517 339.106 802.05 329.502 813.173C328.58 812.685 326.843 812.414 326.572 811.6C322.069 798.849 309.752 746.924 305.031 733.359C294.56 703.408 281.049 674.705 261.788 649.204C171.284 529.238 23.8095 535.315 23.8095 535.315C23.8095 535.315 67.4329 622.183 69.4405 632.655C73.5641 654.358 89.8416 707.478 63.2549 788.16C51.4808 823.917 31.0256 887.562 24.2433 903.568C12.4692 931.511 3.78804 960.323 1.40066 990.49C-1.58356 1028.36 -0.824235 1065.75 13.9884 1102.21C27.0104 1134.22 49.0935 1157.01 78.2303 1172.8C101.724 1185.5 129.288 1211.38 155.875 1213.28C171.393 1214.36 173.725 1221.41 174.485 1220.38C178.283 1214.96 73.9443 1168.02 46.7064 1079.09C35.1494 1041.28 41.335 1008.56 49.528 965.423C59.2403 914.366 75.7889 889.352 101.453 793.695C104.926 780.781 107.367 765.643 110.948 745.676C111.979 740.033 113.661 697.603 106.988 655.715C101.073 618.819 86.8579 581.815 85.4472 577.637C86.2068 577.04 86.9117 576.389 87.6713 575.792C318.162 702.811 284.63 900.313 279.53 952.509C271.011 1040.35 318.216 1096.02 331.998 1110.73C349.795 1129.66 371.39 1144.75 395.046 1156.14C432.81 1174.26 468.838 1184.57 489.185 1188.15C511.322 1192.01 533.731 1197.38 555.923 1197.16C613.274 1196.62 675.618 1187.88 737.744 1133.52C807.032 1072.91 821.79 1005.3 825.751 971.554C830.743 929.016 844.253 849.255 776.864 745.784C755.703 713.283 745.503 678.015 745.123 639.709C744.96 625.384 753.099 578.776 759.067 555.988C792.544 428.371 937.795 341.829 942.136 340.635C940.834 344.759 921.083 515.511 964.816 608.347C1023.52 733.088 1131.93 843.233 1119.67 963.849C1103.66 1121.25 883.97 1227.6 883.211 1230.42L989.558 1175.24L989.666 1174.86Z" fill="black"/>
<path d="M224.351 890.438C206.391 997.381 133.739 1125.49 351.967 1227.65C391.142 1245.99 817.234 1385.98 918.48 1018.22C943.493 927.388 854.076 658.862 849.844 641.933C849.03 638.678 848.378 635.422 847.944 632.113C835.465 541.935 872.415 473.406 872.415 473.406C872.415 473.406 861.509 537.214 862.865 584.202C863.191 594.728 870.353 632.926 872.523 641.554C878.438 664.722 884.298 687.945 891.189 710.842C902.095 746.924 924.395 810.569 931.774 830.97C944.742 866.672 1046.31 1253.37 611.106 1295.21C310.73 1324.07 199.88 1166.4 191.958 1155.82C175.952 1134.44 171.231 1109.32 165.697 1083.92C155.442 1036.83 165.046 1012.03 172.317 982.406C225.599 766.131 169.332 684.418 169.332 684.418C169.332 684.418 199.554 706.121 220.824 776.874C229.396 805.414 226.087 879.586 224.296 890.438H224.351Z" fill="black"/>
</svg>
