<svg width="788" height="1597" viewBox="0 0 788 1597" fill="none" xmlns="http://www.w3.org/2000/svg">
<path d="M81.5515 53.5419C42.4311 293.582 -4.7196 611.754 0.380709 700.141L146.879 700.521C153.878 700.521 159.25 706.652 158.436 713.598L94.6821 1155.05C93.8682 1161.94 99.1856 1168.07 106.185 1168.12L210.904 1169.04C217.795 1169.1 223.166 1175.12 222.407 1181.96L174.876 1581.36C174.117 1588.25 179.543 1594.27 186.488 1594.27L339.985 1596.82C344.597 1596.82 348.775 1594.11 350.62 1589.93L736.344 778.437C739.762 770.84 734.282 762.213 725.981 761.996L596.357 758.741L787.239 301.721L614.045 305.736L673.838 46.0542L645.407 37.5898L585.18 299.116C583.118 308.015 585.288 317.347 591.094 324.455C596.737 331.346 605.147 335.361 614.045 335.361C614.262 335.361 614.479 335.361 614.751 335.361L742.367 332.431L569.065 747.401C565.321 756.408 566.243 766.717 571.561 774.91C576.878 783.103 585.885 788.149 595.652 788.42L697.658 790.97L328.754 1567.14L206.672 1565.08L251.815 1185.54C251.815 1185.54 251.815 1185.32 251.815 1185.27C253.063 1173.71 249.373 1162.1 241.614 1153.36C233.91 1144.68 222.787 1139.64 211.121 1139.53L126.966 1138.77L187.736 717.884C187.736 717.884 187.79 717.396 187.844 717.179C189.255 705.513 185.565 693.739 177.752 684.895C169.939 676.051 158.707 671.005 146.933 670.95L29.7888 670.625C33.2614 554.24 77.5907 260.701 113.564 41.4422L81.5515 53.5961V53.5419Z" fill="#C7BE49"/>
<path d="M614.262 26.358L532.386 349.468C531.952 351.258 532.386 353.157 533.471 354.622C534.611 356.033 536.293 356.847 538.083 356.847C538.083 356.847 538.192 356.847 538.246 356.847L691.852 353.049L520.341 800.682C519.635 802.473 519.853 804.48 520.938 806.108C522.023 807.682 523.759 808.713 525.712 808.767L642.314 812.022C644.268 812.022 646.004 813.053 647.035 814.681C648.066 816.309 648.228 818.316 647.469 819.998L314.484 1532.47C313.561 1534.53 311.5 1535.89 309.492 1535.89L242.374 1533.23C240.692 1533.23 239.173 1532.58 238.088 1531.33C237.003 1530.08 236.46 1528.51 236.623 1526.93L284.153 1127.48C284.696 1122.54 283.122 1117.61 279.813 1113.92C276.503 1110.23 271.782 1108.06 266.845 1108L174.497 1107.13C172.815 1107.13 171.35 1106.43 170.21 1105.18C169.125 1103.93 168.637 1102.36 168.799 1100.84L232.608 659.23C233.204 654.238 231.631 649.247 228.321 645.503C225.011 641.759 220.237 639.589 215.191 639.589L74.9864 639.209C84.6987 496.563 140.259 196.513 174.605 22.2344L168.311 23.7536C134.128 197.218 77.3195 503.074 68.6924 645.069L215.191 645.448C222.19 645.448 227.562 651.58 226.748 658.525L162.994 1099.97C162.18 1106.86 167.497 1112.99 174.497 1113.05L266.845 1113.92C273.736 1113.97 279.107 1119.99 278.348 1126.83L230.817 1526.23C230.057 1533.12 235.483 1539.14 242.428 1539.14L309.329 1541.8C313.941 1541.8 318.119 1539.09 319.964 1534.91L652.895 822.549C656.313 814.952 650.833 806.325 642.531 806.108L525.984 802.853L700.642 346.972L538.192 350.987L620.068 27.9315" fill="#C7BE49"/>
<path d="M580.459 20.1156L498.909 374.316C497.498 380.447 502.218 386.198 508.512 386.09L624.843 383.431C631.571 383.268 636.346 389.888 634.121 396.236L485.941 817.88C483.771 824.011 488.22 830.522 494.785 830.685L588.327 833.018C595.163 833.18 599.667 840.288 596.845 846.528L305.802 1498.28C304.283 1501.75 300.811 1503.98 297.013 1503.98H274.224C268.527 1503.98 264.078 1498.99 264.674 1493.34L309.872 1078.43C310.469 1072.79 306.074 1067.85 300.431 1067.79L214.214 1067.04C208.462 1067.04 204.068 1061.99 204.773 1056.29L257.295 619.022C258.001 613.325 253.551 608.279 247.8 608.279L136.461 608.007C131.198 608.007 126.912 603.829 126.858 598.566C125.718 488.096 190.611 158.801 220.291 14.2557C273.356 5.03171 339.443 -1.91339 415.133 0.473991C478.399 2.48156 534.177 10.5118 580.568 20.1699L580.459 20.1156Z" fill="#C7BE49"/>

</svg>
