<svg width="304" height="322" viewBox="0 0 304 322" fill="none" xmlns="http://www.w3.org/2000/svg">
<path d="M161.869 140.919C164.634 140.862 167.097 141.599 169.123 143.457L169.357 143.678L169.563 143.884C170.175 144.519 170.707 145.252 171.248 146.062L171.213 146.074L172.28 147.703C172.705 148.353 173.076 149.07 173.433 149.833L173.787 150.611L173.79 150.616C174.444 152.069 174.289 153.591 173.657 155.275L173.525 155.614C172.15 158.987 169.791 161.565 166.703 163.478L166.076 163.852L166.074 163.853C162.574 165.865 158.873 167.082 154.91 167.088L154.526 167.085H154.523C150.839 167.026 147.628 165.669 144.833 163.286L144.28 162.797L144.277 162.794L144.156 162.677C144.012 162.531 143.874 162.365 143.733 162.176L143.89 162.188L143.387 160.175L142.975 158.541C142.437 156.518 142.91 154.61 143.961 152.539L143.962 152.54C144.054 152.361 144.155 152.194 144.302 151.941C144.402 151.77 144.519 151.563 144.63 151.334L144.738 151.098L144.74 151.091C145.293 149.774 146.286 148.904 147.715 148.239L148.007 148.109L148.012 148.107C149.551 147.44 150.717 146.812 152.04 146.275L152.618 146.052L152.62 146.051C154.785 145.247 156.951 145.214 159.11 145.953L159.541 146.111L159.545 146.112C160.449 146.462 161.035 147.206 161.568 148.365L161.793 148.888C162.503 150.634 162.682 152.274 162.126 153.862L162.005 154.18C161.311 155.857 159.919 156.967 158.058 157.963C157.11 158.458 156.165 158.729 155.179 158.703L154.98 158.694C153.715 158.601 153.172 158.346 152.884 157.838L152.83 157.732C152.458 156.937 152.607 156.099 153.354 155.102C153.589 154.79 153.97 154.478 154.44 154.194L154.446 154.19L154.452 154.187C154.546 154.128 154.609 154.113 154.638 154.109C154.665 154.106 154.687 154.109 154.709 154.116C154.752 154.131 154.906 154.206 155.061 154.501L156.615 157.456L157.792 154.332C158.409 152.696 157.374 151.262 156.011 150.737L155.734 150.645L155.723 150.642L155.324 150.546C154.4 150.357 153.514 150.415 152.675 150.708C151.742 151.034 150.96 151.619 150.292 152.294C148.073 154.528 147.508 158.479 149.535 161.132V161.133C150.801 162.801 152.606 163.538 154.353 163.819L154.701 163.87C158.263 164.329 161.33 163.09 163.89 160.991L163.889 160.99C165.668 159.534 167.62 157.623 168.095 154.729L168.136 154.445C168.49 151.678 168.014 149.04 166.99 146.565L166.778 146.072C165.728 143.716 164.162 142.115 162.235 141.103C162.114 141.039 161.992 140.978 161.869 140.919Z" fill="#F5F8FF" stroke="#F5F8FF" stroke-width="3"/>
<path d="M154.95 79.0781C155.76 81.8589 156.606 84.5283 157.318 87.2568L157.643 88.5508C158.73 93.094 160.039 97.6034 161.767 101.979L162.119 102.853V102.854C163.217 105.532 164.421 108.202 165.803 110.785L166.407 111.887C167.688 114.169 168.983 115.983 170.154 117.514L171.279 118.956V118.957C177.275 126.559 182.127 132.729 190.098 139.378L190.88 140.022C195.09 143.475 201.584 148.707 211.227 152.919V152.918C214.764 154.465 218.148 155.631 220.645 156.41C221.895 156.8 222.927 157.095 223.648 157.292C224.008 157.39 224.292 157.465 224.486 157.515C224.583 157.54 224.659 157.559 224.711 157.572C224.736 157.579 224.756 157.584 224.77 157.587C224.777 157.589 224.782 157.59 224.786 157.591L224.791 157.592L226.18 157.919C228.346 158.408 230.28 158.748 231.9 159.01C230.099 159.31 228.226 159.569 226.721 159.785L225.215 160.01C210.632 162.301 198.253 171.36 189.218 180.272C181.291 188.091 175.82 195.914 173.568 199.286L172.802 200.445L172.802 200.446C163.863 214.113 159.785 227.65 157.881 237.995C157.452 235.298 157.037 232.688 156.767 231.242L156.638 230.589C155.68 226.069 154.763 221.471 153.656 216.925L153.169 214.979V214.979L153.025 214.449C152.478 212.516 151.697 210.639 150.933 208.855L150.12 206.948C149.216 204.785 148.27 202.577 147.196 200.426L146.727 199.507L146.726 199.504L146.022 198.184C144.352 195.107 142.476 192.069 140.081 189.335H140.08C139.656 188.85 139.28 188.318 138.835 187.701C138.46 187.182 138.04 186.608 137.55 186.063L137.335 185.832C135.043 183.431 132.587 181 129.607 179.086L129.004 178.71C124.261 175.836 119.282 173.43 114.117 171.471L113.081 171.085V171.084L110.908 170.295C105.832 168.463 100.713 166.701 95.5447 165.08H95.5457C92.0317 163.973 82.8902 161.033 76.7791 158.954C78.0411 158.642 79.3089 158.322 80.571 157.986L81.8132 157.65H81.8142C83.7288 157.121 85.6205 156.361 87.3562 155.738L87.3572 155.739C88.9202 155.18 90.5546 154.618 92.1589 153.965L92.158 153.964C93.9171 153.255 95.6338 152.479 97.325 151.703L97.3259 151.704C98.5615 151.143 99.7932 150.568 101.015 149.974L102.234 149.373L102.238 149.371C103.585 148.693 104.972 147.989 106.329 147.225L106.909 146.894L106.911 146.892C109.132 145.594 111.307 144.219 113.453 142.899C114.724 142.122 116.385 141.258 117.758 140.16L117.757 140.159C120.292 138.141 122.859 136.073 125.309 133.865L126.352 132.91L126.355 132.907C129.277 130.17 132.324 127.305 134.905 124.091L134.904 124.09C138.322 119.838 141.415 115.328 144.389 110.819L144.388 110.818C146.029 108.335 147.574 105.645 148.712 102.806L148.934 102.235V102.233C150.386 98.3816 152.322 94.2289 153.003 89.7207L153.002 89.7197C153.231 88.2128 153.495 86.7165 153.772 85.2158L154.628 80.6846L154.629 80.6797C154.728 80.1378 154.835 79.6039 154.95 79.0781ZM173.825 139.993C169.989 136.1 165.176 134.664 159.897 135.235L159.368 135.299H159.364C154.742 135.924 150.518 137.645 146.748 140.411L146.724 140.429C145.867 141.084 144.638 141.898 143.666 142.831C142.991 143.476 142.345 144.152 141.72 144.83L139.903 146.84L139.902 146.841C138.294 148.621 136.846 150.756 136.356 153.356L136.271 153.883C135.631 158.637 136.931 163.068 140.162 166.536L140.48 166.868L140.482 166.87C143.903 170.328 148.258 172.428 153.178 172.952V172.953C158.96 173.577 164.297 172.134 169.164 169.326L169.634 169.05L169.635 169.049C173.071 166.987 175.953 164.251 178.02 160.69L178.6 159.692L178.567 159.659C179.836 157.208 180.642 154.49 180.043 151.414L179.971 151.073C179.095 147.204 177.244 143.845 174.719 140.962L174.206 140.392L174.205 140.391L173.825 139.993Z" fill="#F5F8FF" stroke="#F5F8FF" stroke-width="3"/>
<path d="M153.664 47.457C152.238 59.0156 146.65 91.6623 119.707 120.692C88.8455 153.942 50.6456 160.156 39.9102 161.524C50.8658 162.057 67.0732 163.993 85.3675 170.763C96.0449 174.717 115.522 181.916 129.329 196.385C159.437 227.918 156.771 271.973 156.771 271.973C156.771 271.973 160.585 232.904 190.322 201.184C219.803 169.732 255.418 163.077 266.003 161.5C253.981 159.854 223.641 154.046 196.107 129.329C161.315 98.085 155.009 58.2156 153.664 47.457Z" stroke="#F5F8FF" stroke-width="3" stroke-miterlimit="10"/>
<path d="M153.258 2.0116C151.322 18.4161 143.832 64.7198 107.998 105.957C66.9572 153.188 16.2482 162.104 2 164.086C16.538 164.805 38.032 167.506 62.2852 177.059C76.4522 182.635 102.259 192.791 120.553 213.265C160.411 257.887 156.747 320.387 156.747 320.387C156.747 320.387 161.918 264.983 201.463 219.908C240.671 175.227 287.949 165.686 302 163.414C286.048 161.107 245.807 152.956 209.346 117.979C163.263 73.7742 155.008 17.2452 153.258 2V2.0116Z" stroke="#F5F8FF" stroke-width="3" stroke-linecap="round" stroke-linejoin="round"/>
<path d="M262.116 210.265C264.052 209.622 265.975 211.012 265.975 212.829C265.975 213.086 265.936 213.223 265.906 213.287L265.902 213.295L265.899 213.302C265.512 214.159 264.945 214.545 264.345 214.661C263.714 214.783 262.835 214.642 261.823 214.01C260.99 213.321 260.623 212.624 260.552 212.111C260.491 211.676 260.609 211.197 261.219 210.711L261.22 210.712C261.441 210.537 261.719 210.391 262.098 210.271L262.116 210.265Z" fill="black" stroke="#F5F8FF" stroke-width="3"/>
<path d="M193.298 286.823C195.234 286.181 197.157 287.571 197.158 289.388C197.158 289.644 197.118 289.781 197.088 289.846L197.084 289.854L197.082 289.86C196.694 290.718 196.128 291.104 195.528 291.22C194.897 291.342 194.017 291.201 193.005 290.568C192.172 289.879 191.806 289.183 191.734 288.67C191.673 288.234 191.791 287.756 192.402 287.27L192.403 287.271C192.623 287.096 192.902 286.95 193.281 286.829L193.298 286.823Z" fill="black" stroke="#F5F8FF" stroke-width="3"/>
<path d="M97.375 218.296C99.311 217.653 101.234 219.043 101.234 220.86C101.234 221.117 101.195 221.254 101.165 221.318L101.161 221.326L101.158 221.333C100.771 222.19 100.204 222.576 99.6045 222.692C98.9735 222.815 98.0941 222.674 97.082 222.041C96.2491 221.352 95.8823 220.656 95.8105 220.143C95.7497 219.707 95.8677 219.228 96.4785 218.742L96.4795 218.743C96.6998 218.568 96.9782 218.422 97.3574 218.302L97.375 218.296Z" fill="black" stroke="#F5F8FF" stroke-width="3"/>
<path d="M208.436 52.25C209.44 52.3674 210.088 52.7198 210.412 53.0791C210.656 53.3499 210.809 53.7153 210.689 54.2764L210.621 54.5293C210.54 54.7785 210.387 55.0525 210.146 55.3672C208.964 56.859 206.737 56.8229 205.711 55.5029L205.616 55.3711L205.613 55.3682L205.527 55.2295C205.48 55.1461 205.454 55.0815 205.438 55.0312L205.423 54.9668C205.276 54.0787 205.525 53.4799 205.941 53.0742C206.395 52.633 207.214 52.2665 208.436 52.25Z" fill="black" stroke="#F5F8FF" stroke-width="3"/>
<path d="M292.516 172.49C293.181 172.551 293.526 172.765 293.646 172.892C293.696 172.944 293.705 172.977 293.708 172.992C293.711 173.009 293.722 173.079 293.675 173.224C293.635 173.33 293.57 173.446 293.469 173.563L293.46 173.574L293.45 173.585C292.859 174.296 291.753 174.26 291.237 173.719L291.142 173.604L291.136 173.596L291.103 173.542L291.102 173.54C291.047 173.185 291.149 173.009 291.284 172.884C291.46 172.721 291.846 172.523 292.516 172.49Z" fill="black" stroke="#F5F8FF" stroke-width="3"/>
<path d="M76.4285 84.8926C77.0929 84.9538 77.4379 85.1673 77.5583 85.2939C77.6084 85.3466 77.6166 85.379 77.6199 85.3945C77.6234 85.4116 77.6341 85.4814 77.5867 85.626C77.5466 85.7328 77.4818 85.8487 77.3806 85.9658L77.3718 85.9766L77.3621 85.9873C76.7715 86.6983 75.6652 86.662 75.1492 86.1211L75.0544 86.0059L75.0486 85.998L75.0154 85.9443L75.0144 85.9424C74.959 85.5871 75.0612 85.4111 75.196 85.2861C75.372 85.1232 75.7577 84.9252 76.4285 84.8926Z" fill="black" stroke="#F5F8FF" stroke-width="3"/>
<path d="M58.25 258.072C58.9145 258.133 59.2594 258.347 59.3799 258.474C59.43 258.526 59.4382 258.559 59.4414 258.574C59.4449 258.591 59.4557 258.659 59.4102 258.801C59.3704 258.909 59.3051 259.026 59.2021 259.146L59.1934 259.156L59.1836 259.167C58.593 259.878 57.4867 259.842 56.9707 259.301L56.876 259.186L56.8701 259.178L56.8369 259.124L56.8359 259.122C56.7805 258.767 56.8827 258.591 57.0176 258.466C57.1936 258.303 57.5793 258.105 58.25 258.072Z" fill="black" stroke="#F5F8FF" stroke-width="3"/>
<mask id="path-12-inside-1_1568_2345" fill="white">
<path d="M25.0125 129.34C23.8764 128.054 22.7403 126.767 21.4302 125.271C21.0129 126.697 20.6419 127.949 20.2709 129.19C20.1898 129.167 20.0969 129.155 20.0157 129.132C20.1317 127.949 20.2477 126.767 20.3984 125.271C19.3086 125.839 18.5086 126.257 17.7087 126.674C17.6739 126.604 17.6276 126.535 17.5928 126.465C18.1609 125.944 18.7289 125.434 19.2854 124.912C19.2622 124.819 19.2391 124.726 19.2159 124.645C18.1609 124.599 17.0943 124.541 16.0393 124.494C16.0393 124.39 16.0277 124.286 16.0161 124.181C17.4421 123.973 18.8681 123.776 20.5259 123.532C19.726 122.048 19.0071 120.715 18.2884 119.382C18.3811 119.324 18.4622 119.266 18.555 119.208C19.3897 120.332 20.2129 121.445 21.1983 122.779C21.7664 121.306 22.2301 120.124 22.6823 118.93C22.7866 118.941 22.8794 118.964 22.9837 118.976C22.775 119.996 22.578 121.005 22.3113 122.327C23.262 121.886 23.9691 121.561 24.6647 121.237C24.6995 121.283 24.7459 121.33 24.7807 121.364C24.2126 122.002 23.6562 122.651 23.0301 123.358C24.3865 123.857 25.5806 124.297 26.7747 124.726C26.7515 124.831 26.7283 124.947 26.7051 125.051C25.4878 124.947 24.259 124.842 23.0417 124.75C22.9954 124.865 22.9604 124.993 22.9141 125.109C23.7256 126.489 24.5373 127.88 25.3604 129.259C25.2445 129.283 25.1285 129.306 25.0125 129.329V129.34Z"/>
</mask>
<path d="M25.0125 129.34C23.8764 128.054 22.7403 126.767 21.4302 125.271C21.0129 126.697 20.6419 127.949 20.2709 129.19C20.1898 129.167 20.0969 129.155 20.0157 129.132C20.1317 127.949 20.2477 126.767 20.3984 125.271C19.3086 125.839 18.5086 126.257 17.7087 126.674C17.6739 126.604 17.6276 126.535 17.5928 126.465C18.1609 125.944 18.7289 125.434 19.2854 124.912C19.2622 124.819 19.2391 124.726 19.2159 124.645C18.1609 124.599 17.0943 124.541 16.0393 124.494C16.0393 124.39 16.0277 124.286 16.0161 124.181C17.4421 123.973 18.8681 123.776 20.5259 123.532C19.726 122.048 19.0071 120.715 18.2884 119.382C18.3811 119.324 18.4622 119.266 18.555 119.208C19.3897 120.332 20.2129 121.445 21.1983 122.779C21.7664 121.306 22.2301 120.124 22.6823 118.93C22.7866 118.941 22.8794 118.964 22.9837 118.976C22.775 119.996 22.578 121.005 22.3113 122.327C23.262 121.886 23.9691 121.561 24.6647 121.237C24.6995 121.283 24.7459 121.33 24.7807 121.364C24.2126 122.002 23.6562 122.651 23.0301 123.358C24.3865 123.857 25.5806 124.297 26.7747 124.726C26.7515 124.831 26.7283 124.947 26.7051 125.051C25.4878 124.947 24.259 124.842 23.0417 124.75C22.9954 124.865 22.9604 124.993 22.9141 125.109C23.7256 126.489 24.5373 127.88 25.3604 129.259C25.2445 129.283 25.1285 129.306 25.0125 129.329V129.34Z" fill="black"/>
<path d="M25.0125 129.34L22.7636 131.326L28.0125 137.271V129.34H25.0125ZM21.4302 125.271L23.6869 123.294L20.0861 119.184L18.551 124.429L21.4302 125.271ZM20.2709 129.19L19.4467 132.074L22.2961 132.888L23.1451 130.049L20.2709 129.19ZM20.0157 129.132L17.0301 128.839L16.7859 131.329L19.1916 132.016L20.0157 129.132ZM20.3984 125.271L23.3833 125.572L23.9406 120.042L19.0117 122.611L20.3984 125.271ZM17.7087 126.674L15.0254 128.016L16.3904 130.746L19.0964 129.334L17.7087 126.674ZM17.5928 126.465L15.5636 124.256L13.8985 125.785L14.9095 127.807L17.5928 126.465ZM19.2854 124.912L21.3372 127.1L22.6234 125.895L22.1958 124.184L19.2854 124.912ZM19.2159 124.645L22.1004 123.821L21.5067 121.743L19.3476 121.648L19.2159 124.645ZM16.0393 124.494H13.0393V127.366L15.9076 127.492L16.0393 124.494ZM16.0161 124.181L15.5817 121.213L12.7145 121.633L13.0345 124.513L16.0161 124.181ZM20.5259 123.532L20.9618 126.5L25.1987 125.878L23.1667 122.109L20.5259 123.532ZM18.2884 119.382L16.6984 116.838L14.3125 118.329L15.6477 120.805L18.2884 119.382ZM18.555 119.208L20.9639 117.42L19.3133 115.196L16.965 116.664L18.555 119.208ZM21.1983 122.779L18.7858 124.562L22.0315 128.953L23.9972 123.859L21.1983 122.779ZM22.6823 118.93L23.0136 115.948L20.7007 115.691L19.8766 117.867L22.6823 118.93ZM22.9837 118.976L25.9228 119.577L26.5815 116.357L23.315 115.994L22.9837 118.976ZM22.3113 122.327L19.3706 121.733L18.1993 127.539L23.5727 125.048L22.3113 122.327ZM24.6647 121.237L27.0647 119.437L25.6032 117.488L23.396 118.518L24.6647 121.237ZM24.7807 121.364L27.0207 123.36L28.9045 121.245L26.902 119.243L24.7807 121.364ZM23.0301 123.358L20.7838 121.37L17.8722 124.659L21.9952 126.174L23.0301 123.358ZM26.7747 124.726L29.7033 125.377L30.2767 122.797L27.789 121.903L26.7747 124.726ZM26.7051 125.051L26.4489 128.04L29.0642 128.264L29.6337 125.702L26.7051 125.051ZM23.0417 124.75L23.2696 121.758L21.0741 121.591L20.2563 123.635L23.0417 124.75ZM22.9141 125.109L20.1286 123.995L19.582 125.361L20.3283 126.63L22.9141 125.109ZM25.3604 129.259L25.9487 132.201L30.1121 131.368L27.9367 127.722L25.3604 129.259ZM25.0125 129.329L24.4242 126.387L22.0125 126.869V129.329H25.0125ZM25.0125 129.34L27.2615 127.355C26.1251 126.068 24.9926 124.785 23.6869 123.294L21.4302 125.271L19.1736 127.248C20.488 128.748 21.6276 130.039 22.7636 131.326L25.0125 129.34ZM21.4302 125.271L18.551 124.429C18.1354 125.849 17.7661 127.095 17.3967 128.33L20.2709 129.19L23.1451 130.049C23.5177 128.804 23.8903 127.546 24.3095 126.114L21.4302 125.271ZM20.2709 129.19L21.0951 126.305C20.9958 126.277 20.9107 126.257 20.8535 126.244C20.7987 126.232 20.7481 126.222 20.7314 126.219C20.7046 126.214 20.7117 126.215 20.7237 126.218C20.7382 126.221 20.7812 126.23 20.8399 126.247L20.0157 129.132L19.1916 132.016C19.2909 132.045 19.3759 132.065 19.4332 132.077C19.4879 132.089 19.5386 132.099 19.5553 132.103C19.5821 132.108 19.575 132.107 19.5629 132.104C19.5485 132.101 19.5054 132.091 19.4467 132.074L20.2709 129.19ZM20.0157 129.132L23.0014 129.425C23.1173 128.242 23.233 127.063 23.3833 125.572L20.3984 125.271L17.4135 124.97C17.2624 126.47 17.146 127.656 17.0301 128.839L20.0157 129.132ZM20.3984 125.271L19.0117 122.611C17.9214 123.179 17.121 123.597 16.321 124.014L17.7087 126.674L19.0964 129.334C19.8962 128.916 20.6959 128.499 21.7851 127.931L20.3984 125.271ZM17.7087 126.674L20.392 125.332C20.3544 125.257 20.32 125.195 20.2957 125.151C20.2725 125.11 20.2504 125.072 20.2423 125.059C20.2302 125.038 20.2319 125.041 20.2356 125.047C20.2403 125.056 20.2559 125.083 20.2761 125.124L17.5928 126.465L14.9095 127.807C14.947 127.882 14.9815 127.945 15.0057 127.988C15.029 128.029 15.051 128.067 15.0591 128.081C15.0713 128.102 15.0695 128.099 15.0659 128.092C15.0611 128.084 15.0455 128.056 15.0254 128.016L17.7087 126.674ZM17.5928 126.465L19.622 128.675C20.1547 128.186 20.7683 127.634 21.3372 127.1L19.2854 124.912L17.2335 122.723C16.6895 123.233 16.167 123.702 15.5636 124.256L17.5928 126.465ZM19.2854 124.912L22.1958 124.184C22.1763 124.106 22.1402 123.96 22.1004 123.821L19.2159 124.645L16.3313 125.469C16.3379 125.492 16.348 125.532 16.3749 125.639L19.2854 124.912ZM19.2159 124.645L19.3476 121.648C18.8293 121.625 18.3067 121.6 17.775 121.573C17.2459 121.547 16.7077 121.521 16.1711 121.497L16.0393 124.494L15.9076 127.492C16.4259 127.514 16.9485 127.54 17.4802 127.566C18.0093 127.592 18.5475 127.619 19.0841 127.642L19.2159 124.645ZM16.0393 124.494H19.0393C19.0393 124.196 19.0061 123.925 18.9978 123.85L16.0161 124.181L13.0345 124.513C13.036 124.526 13.0371 124.537 13.0382 124.547C13.0393 124.557 13.0401 124.564 13.0408 124.571C13.0422 124.584 13.0425 124.588 13.0425 124.587C13.0424 124.586 13.0416 124.577 13.0409 124.562C13.0401 124.547 13.0393 124.524 13.0393 124.494H16.0393ZM16.0161 124.181L16.4505 127.15C17.7388 126.961 19.4104 126.728 20.9618 126.5L20.5259 123.532L20.09 120.564C18.3257 120.823 17.1454 120.984 15.5817 121.213L16.0161 124.181ZM20.5259 123.532L23.1667 122.109C22.3667 120.625 21.6478 119.291 20.929 117.958L18.2884 119.382L15.6477 120.805C16.3665 122.139 17.0853 123.472 17.8852 124.956L20.5259 123.532ZM18.2884 119.382L19.8784 121.926C19.968 121.87 20.0472 121.817 20.0858 121.791C20.1091 121.775 20.1214 121.767 20.1324 121.76C20.1421 121.754 20.1454 121.752 20.145 121.752L18.555 119.208L16.965 116.664C16.8754 116.72 16.7961 116.773 16.7575 116.799C16.7343 116.814 16.722 116.822 16.711 116.83C16.7012 116.836 16.6979 116.838 16.6984 116.838L18.2884 119.382ZM18.555 119.208L16.1461 120.996C16.9788 122.118 17.8005 123.229 18.7858 124.562L21.1983 122.779L23.6108 120.996C22.6252 119.662 21.8005 118.547 20.9639 117.42L18.555 119.208ZM21.1983 122.779L23.9972 123.859C24.5572 122.407 25.0316 121.197 25.4879 119.992L22.6823 118.93L19.8766 117.867C19.4287 119.05 18.9755 120.206 18.3994 121.699L21.1983 122.779ZM22.6823 118.93L22.351 121.911C22.2929 121.905 22.2498 121.896 22.3115 121.907C22.3484 121.914 22.49 121.94 22.6524 121.958L22.9837 118.976L23.315 115.994C23.3731 116.001 23.4161 116.009 23.3545 115.999C23.3176 115.992 23.176 115.966 23.0136 115.948L22.6823 118.93ZM22.9837 118.976L20.0446 118.375C19.8363 119.393 19.6312 120.441 19.3706 121.733L22.3113 122.327L25.2521 122.92C25.5248 121.568 25.7138 120.599 25.9228 119.577L22.9837 118.976ZM22.3113 122.327L23.5727 125.048C24.5095 124.614 25.2343 124.282 25.9333 123.955L24.6647 121.237L23.396 118.518C22.7038 118.841 22.0144 119.158 21.05 119.605L22.3113 122.327ZM24.6647 121.237L22.2647 123.037C22.4507 123.285 22.6572 123.483 22.6594 123.486L24.7807 121.364L26.902 119.243C26.8795 119.22 26.8947 119.235 26.9144 119.256C26.9263 119.269 26.9455 119.29 26.9693 119.318C26.9927 119.345 27.026 119.385 27.0647 119.437L24.6647 121.237ZM24.7807 121.364L22.5407 119.369C22.0098 119.965 21.3273 120.756 20.7838 121.37L23.0301 123.358L25.2764 125.347C25.985 124.546 26.4155 124.039 27.0207 123.36L24.7807 121.364ZM23.0301 123.358L21.9952 126.174C23.346 126.671 24.5533 127.116 25.7605 127.55L26.7747 124.726L27.789 121.903C26.6079 121.479 25.4271 121.043 24.065 120.542L23.0301 123.358ZM26.7747 124.726L23.8462 124.076C23.8304 124.146 23.8154 124.218 23.8045 124.27C23.7922 124.328 23.784 124.367 23.7765 124.4L26.7051 125.051L29.6337 125.702C29.6494 125.631 29.6645 125.559 29.6754 125.508C29.6877 125.449 29.6959 125.411 29.7033 125.377L26.7747 124.726ZM26.7051 125.051L26.9613 122.062C25.7441 121.958 24.5026 121.852 23.2696 121.758L23.0417 124.75L22.8138 127.741C24.0154 127.832 25.2315 127.936 26.4489 128.04L26.7051 125.051ZM23.0417 124.75L20.2563 123.635C20.2231 123.718 20.1964 123.792 20.177 123.848C20.1582 123.901 20.1413 123.952 20.1323 123.979C20.121 124.013 20.1176 124.023 20.1153 124.03C20.1137 124.034 20.1186 124.02 20.1286 123.995L22.9141 125.109L25.6995 126.223C25.7327 126.14 25.7594 126.066 25.7788 126.011C25.7976 125.957 25.8145 125.906 25.8235 125.879C25.8348 125.845 25.8382 125.835 25.8405 125.829C25.8421 125.824 25.8372 125.839 25.8272 125.864L23.0417 124.75ZM22.9141 125.109L20.3283 126.63C21.1325 127.997 21.9546 129.406 22.7841 130.796L25.3604 129.259L27.9367 127.722C27.1199 126.353 26.3187 124.98 25.4999 123.588L22.9141 125.109ZM25.3604 129.259L24.772 126.318C24.7142 126.329 24.6563 126.341 24.5983 126.352C24.5403 126.364 24.4823 126.376 24.4242 126.387L25.0125 129.329L25.6009 132.271C25.6587 132.259 25.7166 132.247 25.7746 132.236C25.8326 132.224 25.8907 132.213 25.9487 132.201L25.3604 129.259ZM25.0125 129.329H22.0125V129.34H25.0125H28.0125V129.329H25.0125Z" fill="#F5F8FF" mask="url(#path-12-inside-1_1568_2345)"/>
<path d="M227.188 108.476L227.032 108.979C227.027 108.992 227.022 109.006 227.017 109.021L226.836 108.814L227.016 108.79L226.761 108.319L227.188 108.476Z" fill="black" stroke="#F5F8FF" stroke-width="3"/>
<path d="M41.8389 232.817L41.6367 233.392C41.5844 233.54 41.5572 233.623 41.5371 233.687L41.0742 233.163L41.3105 233.131L40.9727 232.502L40.9746 232.499L41.8389 232.817Z" fill="black" stroke="#F5F8FF" stroke-width="3"/>
<path d="M230.976 247.624L230.759 248.241C230.722 248.346 230.68 248.463 230.639 248.578L230.103 247.966L230.352 247.932L230.028 247.329L230.045 247.283L230.976 247.624Z" fill="black" stroke="#F5F8FF" stroke-width="3"/>
<mask id="path-17-inside-2_1568_2345" fill="white">
<path d="M202.993 240.522C202.182 239.606 201.382 238.69 200.443 237.635C200.141 238.643 199.886 239.536 199.619 240.417C199.561 240.406 199.492 240.394 199.434 240.371C199.515 239.536 199.596 238.701 199.701 237.635C198.924 238.041 198.356 238.33 197.788 238.632C197.765 238.585 197.73 238.527 197.707 238.481C198.112 238.11 198.507 237.751 198.912 237.38C198.901 237.31 198.877 237.252 198.866 237.183C198.112 237.148 197.37 237.113 196.617 237.078C196.617 237.009 196.617 236.928 196.605 236.858C197.614 236.707 198.622 236.568 199.805 236.394C199.237 235.339 198.727 234.4 198.217 233.45C198.275 233.403 198.344 233.368 198.402 233.322C198.993 234.122 199.585 234.91 200.28 235.861C200.686 234.818 201.011 233.971 201.335 233.125C201.405 233.137 201.474 233.148 201.556 233.16C201.405 233.879 201.266 234.597 201.08 235.536C201.753 235.223 202.251 234.992 202.75 234.76C202.773 234.794 202.808 234.818 202.831 234.852C202.425 235.305 202.031 235.757 201.59 236.267C202.553 236.615 203.399 236.928 204.245 237.241C204.234 237.322 204.21 237.391 204.199 237.472C203.329 237.403 202.471 237.322 201.602 237.252C201.567 237.333 201.544 237.426 201.509 237.507C202.089 238.493 202.668 239.467 203.237 240.452C203.155 240.464 203.074 240.487 202.993 240.498V240.522Z"/>
</mask>
<path d="M202.993 240.522C202.182 239.606 201.382 238.69 200.443 237.635C200.141 238.643 199.886 239.536 199.619 240.417C199.561 240.406 199.492 240.394 199.434 240.371C199.515 239.536 199.596 238.701 199.701 237.635C198.924 238.041 198.356 238.33 197.788 238.632C197.765 238.585 197.73 238.527 197.707 238.481C198.112 238.11 198.507 237.751 198.912 237.38C198.901 237.31 198.877 237.252 198.866 237.183C198.112 237.148 197.37 237.113 196.617 237.078C196.617 237.009 196.617 236.928 196.605 236.858C197.614 236.707 198.622 236.568 199.805 236.394C199.237 235.339 198.727 234.4 198.217 233.45C198.275 233.403 198.344 233.368 198.402 233.322C198.993 234.122 199.585 234.91 200.28 235.861C200.686 234.818 201.011 233.971 201.335 233.125C201.405 233.137 201.474 233.148 201.556 233.16C201.405 233.879 201.266 234.597 201.08 235.536C201.753 235.223 202.251 234.992 202.75 234.76C202.773 234.794 202.808 234.818 202.831 234.852C202.425 235.305 202.031 235.757 201.59 236.267C202.553 236.615 203.399 236.928 204.245 237.241C204.234 237.322 204.21 237.391 204.199 237.472C203.329 237.403 202.471 237.322 201.602 237.252C201.567 237.333 201.544 237.426 201.509 237.507C202.089 238.493 202.668 239.467 203.237 240.452C203.155 240.464 203.074 240.487 202.993 240.498V240.522Z" fill="black"/>
<path d="M202.993 240.522L200.748 242.511L205.993 248.431V240.522H202.993ZM200.443 237.635L202.683 235.64L199.108 231.623L197.568 236.776L200.443 237.635ZM199.619 240.417L199.031 243.359L201.702 243.893L202.491 241.286L199.619 240.417ZM199.434 240.371L196.448 240.081L196.23 242.32L198.32 243.156L199.434 240.371ZM199.701 237.635L202.686 237.927L203.226 232.408L198.311 234.976L199.701 237.635ZM197.788 238.632L195.104 239.973L196.479 242.722L199.194 241.282L197.788 238.632ZM197.707 238.481L195.682 236.267L194.01 237.796L195.023 239.823L197.707 238.481ZM198.912 237.38L200.937 239.594L202.139 238.494L201.871 236.887L198.912 237.38ZM198.866 237.183L201.825 236.689L201.426 234.298L199.004 234.186L198.866 237.183ZM196.617 237.078H193.617V239.943L196.479 240.075L196.617 237.078ZM196.605 236.858L196.162 233.891L193.144 234.342L193.646 237.351L196.605 236.858ZM199.805 236.394L200.241 239.362L204.475 238.74L202.446 234.972L199.805 236.394ZM198.217 233.45L196.343 231.107L194.392 232.667L195.573 234.868L198.217 233.45ZM198.402 233.322L200.815 231.539L198.962 229.032L196.528 230.979L198.402 233.322ZM200.28 235.861L197.859 237.633L201.092 242.051L203.076 236.948L200.28 235.861ZM201.335 233.125L201.828 230.166L199.412 229.763L198.534 232.051L201.335 233.125ZM201.556 233.16L204.492 233.775L205.149 230.643L201.98 230.19L201.556 233.16ZM201.08 235.536L198.137 234.955L196.993 240.748L202.346 238.256L201.08 235.536ZM202.75 234.76L205.246 233.096L203.818 230.954L201.484 232.039L202.75 234.76ZM202.831 234.852L205.064 236.856L206.618 235.124L205.327 233.188L202.831 234.852ZM201.59 236.267L199.32 234.306L196.47 237.606L200.57 239.088L201.59 236.267ZM204.245 237.241L207.215 237.665L207.558 235.267L205.286 234.427L204.245 237.241ZM204.199 237.472L203.96 240.463L206.77 240.688L207.169 237.897L204.199 237.472ZM201.602 237.252L201.841 234.262L199.693 234.09L198.844 236.07L201.602 237.252ZM201.509 237.507L198.752 236.326L198.154 237.72L198.923 239.028L201.509 237.507ZM203.237 240.452L203.661 243.422L208.05 242.795L205.836 238.954L203.237 240.452ZM202.993 240.498L202.569 237.528L199.993 237.896V240.498H202.993ZM202.993 240.522L205.239 238.532C204.454 237.646 203.616 236.688 202.683 235.64L200.443 237.635L198.202 239.629C199.147 240.691 199.91 241.565 200.748 242.511L202.993 240.522ZM200.443 237.635L197.568 236.776C197.245 237.858 197.021 238.646 196.748 239.548L199.619 240.417L202.491 241.286C202.751 240.427 203.038 239.429 203.317 238.494L200.443 237.635ZM199.619 240.417L200.208 237.475C200.192 237.472 200.178 237.47 200.17 237.468C200.161 237.466 200.158 237.466 200.156 237.465C200.152 237.464 200.167 237.467 200.192 237.473C200.216 237.479 200.26 237.489 200.317 237.505C200.373 237.522 200.453 237.547 200.548 237.585L199.434 240.371L198.32 243.156C198.557 243.251 198.761 243.301 198.862 243.324C198.918 243.336 198.965 243.346 198.992 243.351C199.006 243.354 199.019 243.357 199.024 243.358C199.032 243.359 199.032 243.359 199.031 243.359L199.619 240.417ZM199.434 240.371L202.42 240.661C202.501 239.826 202.582 238.992 202.686 237.927L199.701 237.635L196.715 237.343C196.61 238.41 196.529 239.246 196.448 240.081L199.434 240.371ZM199.701 237.635L198.311 234.976C197.571 235.363 196.957 235.677 196.382 235.982L197.788 238.632L199.194 241.282C199.755 240.984 200.277 240.719 201.09 240.294L199.701 237.635ZM197.788 238.632L200.471 237.29C200.444 237.236 200.42 237.191 200.404 237.163C200.389 237.135 200.375 237.109 200.369 237.098C200.36 237.083 200.36 237.083 200.362 237.085C200.363 237.088 200.374 237.109 200.39 237.139L197.707 238.481L195.023 239.823C195.05 239.877 195.075 239.922 195.09 239.95C195.105 239.978 195.12 240.004 195.125 240.015C195.134 240.03 195.134 240.03 195.133 240.028C195.131 240.025 195.12 240.004 195.104 239.973L197.788 238.632ZM197.707 238.481L199.731 240.695C199.933 240.511 200.132 240.329 200.332 240.146C200.532 239.963 200.733 239.78 200.937 239.594L198.912 237.38L196.888 235.166C196.686 235.35 196.487 235.532 196.287 235.715C196.087 235.897 195.886 236.081 195.682 236.267L197.707 238.481ZM198.912 237.38L201.871 236.887C201.853 236.776 201.832 236.683 201.816 236.616C201.801 236.555 201.786 236.501 201.783 236.491C201.777 236.469 201.783 236.491 201.79 236.52C201.799 236.554 201.812 236.613 201.825 236.689L198.866 237.183L195.907 237.676C195.925 237.787 195.946 237.879 195.962 237.946C195.977 238.007 195.992 238.062 195.995 238.072C196.001 238.093 195.995 238.071 195.988 238.042C195.979 238.008 195.966 237.949 195.953 237.873L198.912 237.38ZM198.866 237.183L199.004 234.186C198.628 234.168 198.255 234.151 197.881 234.134C197.507 234.116 197.133 234.099 196.755 234.082L196.617 237.078L196.479 240.075C196.855 240.092 197.228 240.11 197.602 240.127C197.976 240.145 198.35 240.162 198.728 240.179L198.866 237.183ZM196.617 237.078H199.617C199.617 237.067 199.624 236.725 199.564 236.365L196.605 236.858L193.646 237.351C193.634 237.277 193.627 237.217 193.624 237.176C193.62 237.134 193.618 237.102 193.618 237.084C193.616 237.054 193.617 237.035 193.617 237.078H196.617ZM196.605 236.858L197.049 239.825C198.076 239.672 199.001 239.545 200.241 239.362L199.805 236.394L199.369 233.426C198.244 233.592 197.151 233.743 196.162 233.891L196.605 236.858ZM199.805 236.394L202.446 234.972C201.869 233.9 201.372 232.984 200.86 232.031L198.217 233.45L195.573 234.868C196.082 235.816 196.605 236.779 197.164 237.817L199.805 236.394ZM198.217 233.45L200.091 235.792C200.022 235.847 199.967 235.886 199.94 235.903C199.917 235.919 199.899 235.93 199.921 235.916C199.931 235.91 199.981 235.878 200.035 235.842C200.093 235.803 200.178 235.743 200.276 235.665L198.402 233.322L196.528 230.979C196.597 230.924 196.652 230.886 196.679 230.868C196.702 230.853 196.72 230.842 196.698 230.855C196.688 230.862 196.638 230.893 196.584 230.93C196.526 230.969 196.44 231.029 196.343 231.107L198.217 233.45ZM198.402 233.322L195.99 235.105C196.598 235.928 197.167 236.687 197.859 237.633L200.28 235.861L202.701 234.089C202.002 233.134 201.389 232.316 200.815 231.539L198.402 233.322ZM200.28 235.861L203.076 236.948C203.485 235.898 203.812 235.046 204.136 234.199L201.335 233.125L198.534 232.051C198.21 232.897 197.887 233.737 197.484 234.774L200.28 235.861ZM201.335 233.125L200.842 236.084C200.91 236.096 201.012 236.113 201.131 236.13L201.556 233.16L201.98 230.19C201.937 230.184 201.899 230.178 201.828 230.166L201.335 233.125ZM201.556 233.16L198.619 232.544C198.464 233.285 198.319 234.032 198.137 234.955L201.08 235.536L204.023 236.118C204.212 235.163 204.346 234.472 204.492 233.775L201.556 233.16ZM201.08 235.536L202.346 238.256C203.018 237.943 203.516 237.712 204.015 237.48L202.75 234.76L201.484 232.039C200.986 232.271 200.487 232.503 199.814 232.817L201.08 235.536ZM202.75 234.76L200.253 236.424C200.365 236.592 200.473 236.718 200.545 236.798C200.582 236.838 200.613 236.87 200.633 236.891C200.652 236.91 200.669 236.927 200.67 236.929C200.676 236.935 200.666 236.925 200.655 236.913C200.641 236.899 200.618 236.875 200.588 236.842C200.53 236.777 200.435 236.667 200.335 236.517L202.831 234.852L205.327 233.188C205.215 233.02 205.107 232.894 205.035 232.814C204.999 232.774 204.968 232.742 204.947 232.721C204.928 232.702 204.912 232.685 204.91 232.683C204.904 232.677 204.914 232.687 204.926 232.699C204.939 232.713 204.963 232.738 204.992 232.77C205.051 232.835 205.145 232.945 205.246 233.096L202.75 234.76ZM202.831 234.852L200.598 232.849C200.174 233.322 199.765 233.79 199.32 234.306L201.59 236.267L203.861 238.228C204.296 237.723 204.676 237.288 205.064 236.856L202.831 234.852ZM201.59 236.267L200.57 239.088C201.521 239.432 202.357 239.741 203.204 240.054L204.245 237.241L205.286 234.427C204.44 234.114 203.584 233.798 202.61 233.445L201.59 236.267ZM204.245 237.241L201.275 236.816C201.284 236.758 201.293 236.713 201.297 236.689C201.301 236.671 201.305 236.657 201.299 236.681C201.296 236.695 201.284 236.746 201.272 236.803C201.259 236.865 201.243 236.949 201.229 237.048L204.199 237.472L207.169 237.897C207.16 237.956 207.151 238 207.147 238.024C207.143 238.042 207.139 238.056 207.145 238.032C207.148 238.018 207.16 237.967 207.172 237.91C207.185 237.848 207.201 237.764 207.215 237.665L204.245 237.241ZM204.199 237.472L204.438 234.482C204.016 234.448 203.595 234.412 203.161 234.374C202.731 234.336 202.288 234.298 201.841 234.262L201.602 237.252L201.363 240.243C201.785 240.276 202.206 240.313 202.64 240.351C203.07 240.389 203.512 240.427 203.96 240.463L204.199 237.472ZM201.602 237.252L198.844 236.07C198.803 236.168 198.772 236.252 198.751 236.309C198.732 236.364 198.715 236.415 198.709 236.432C198.7 236.459 198.703 236.451 198.707 236.439C198.712 236.424 198.727 236.382 198.752 236.326L201.509 237.507L204.267 238.689C204.308 238.592 204.339 238.508 204.36 238.45C204.379 238.395 204.396 238.344 204.402 238.328C204.411 238.301 204.408 238.308 204.404 238.32C204.399 238.335 204.384 238.377 204.359 238.434L201.602 237.252ZM201.509 237.507L198.923 239.028C199.514 240.032 200.078 240.98 200.637 241.95L203.237 240.452L205.836 238.954C205.259 237.953 204.664 236.954 204.095 235.986L201.509 237.507ZM203.237 240.452L202.812 237.482C202.724 237.495 202.65 237.508 202.597 237.519C202.548 237.529 202.502 237.538 202.486 237.542C202.462 237.547 202.467 237.546 202.476 237.544C202.488 237.542 202.522 237.535 202.569 237.528L202.993 240.498L203.417 243.468C203.505 243.456 203.58 243.442 203.632 243.432C203.682 243.422 203.727 243.412 203.743 243.409C203.768 243.403 203.763 243.404 203.754 243.406C203.742 243.409 203.708 243.415 203.661 243.422L203.237 240.452ZM202.993 240.498H199.993V240.522H202.993H205.993V240.498H202.993Z" fill="#F5F8FF" mask="url(#path-17-inside-2_1568_2345)"/>
<mask id="path-19-inside-3_1568_2345" fill="white">
<path d="M97.0416 41.7583C98.5835 40.4019 100.125 39.0339 101.899 37.4688C100.183 36.9587 98.6995 36.5182 97.204 36.0776C97.2271 35.9733 97.2503 35.8689 97.2734 35.7646C98.6878 35.9037 100.102 36.0428 101.888 36.2167C101.204 34.9067 100.705 33.956 100.207 32.9938C100.288 32.9474 100.38 32.9011 100.462 32.8547C101.076 33.5271 101.702 34.2111 102.317 34.8835C102.421 34.8603 102.537 34.8255 102.641 34.8024C102.699 33.5387 102.757 32.275 102.827 30.9997C102.954 30.9997 103.07 30.9766 103.198 30.9766C103.441 32.6808 103.685 34.385 103.974 36.3675C105.748 35.4168 107.348 34.5589 108.948 33.701C109.018 33.8053 109.087 33.9097 109.157 34.014C107.812 35.011 106.479 35.9965 104.879 37.179C106.641 37.863 108.067 38.4079 109.481 38.9528C109.458 39.0687 109.435 39.1962 109.423 39.3121C108.206 39.0687 106.989 38.8252 105.412 38.5006C105.945 39.6368 106.328 40.4831 106.722 41.3178C106.664 41.3642 106.618 41.4105 106.56 41.4569C105.795 40.7845 105.029 40.1121 104.172 39.3585C103.58 40.9816 103.059 42.4076 102.525 43.8335C102.398 43.8104 102.27 43.7756 102.143 43.7524C102.27 42.2916 102.386 40.8309 102.514 39.3701C102.363 39.3237 102.224 39.2658 102.073 39.2194C100.415 40.1932 98.7574 41.1671 97.1111 42.1409C97.0879 42.0018 97.0532 41.8627 97.03 41.7236L97.0416 41.7583Z"/>
</mask>
<path d="M97.0416 41.7583C98.5835 40.4019 100.125 39.0339 101.899 37.4688C100.183 36.9587 98.6995 36.5182 97.204 36.0776C97.2271 35.9733 97.2503 35.8689 97.2734 35.7646C98.6878 35.9037 100.102 36.0428 101.888 36.2167C101.204 34.9067 100.705 33.956 100.207 32.9938C100.288 32.9474 100.38 32.9011 100.462 32.8547C101.076 33.5271 101.702 34.2111 102.317 34.8835C102.421 34.8603 102.537 34.8255 102.641 34.8024C102.699 33.5387 102.757 32.275 102.827 30.9997C102.954 30.9997 103.07 30.9766 103.198 30.9766C103.441 32.6808 103.685 34.385 103.974 36.3675C105.748 35.4168 107.348 34.5589 108.948 33.701C109.018 33.8053 109.087 33.9097 109.157 34.014C107.812 35.011 106.479 35.9965 104.879 37.179C106.641 37.863 108.067 38.4079 109.481 38.9528C109.458 39.0687 109.435 39.1962 109.423 39.3121C108.206 39.0687 106.989 38.8252 105.412 38.5006C105.945 39.6368 106.328 40.4831 106.722 41.3178C106.664 41.3642 106.618 41.4105 106.56 41.4569C105.795 40.7845 105.029 40.1121 104.172 39.3585C103.58 40.9816 103.059 42.4076 102.525 43.8335C102.398 43.8104 102.27 43.7756 102.143 43.7524C102.27 42.2916 102.386 40.8309 102.514 39.3701C102.363 39.3237 102.224 39.2658 102.073 39.2194C100.415 40.1932 98.7574 41.1671 97.1111 42.1409C97.0879 42.0018 97.0532 41.8627 97.03 41.7236L97.0416 41.7583Z" fill="black"/>
<path d="M97.0416 41.7583L94.1959 42.7079L95.6274 46.9981L99.0231 44.0108L97.0416 41.7583ZM101.899 37.4688L103.884 39.7183L107.944 36.1361L102.754 34.5932L101.899 37.4688ZM97.204 36.0776L94.2754 35.4268L93.6673 38.1633L96.3563 38.9554L97.204 36.0776ZM97.2734 35.7646L97.5671 32.779L94.9216 32.5188L94.3449 35.1138L97.2734 35.7646ZM101.888 36.2167L101.597 39.2026L107.111 39.7397L104.547 34.8282L101.888 36.2167ZM100.207 32.9938L98.7182 30.3891L96.2185 31.8175L97.5428 34.3738L100.207 32.9938ZM100.462 32.8547L102.676 30.831L101.057 29.0591L98.9732 30.2499L100.462 32.8547ZM102.317 34.8835L100.102 36.9072L101.273 38.1886L102.967 37.8121L102.317 34.8835ZM102.641 34.8024L103.292 37.7309L105.533 37.2329L105.638 34.9398L102.641 34.8024ZM102.827 30.9997V27.9997H99.9859L99.8311 30.8364L102.827 30.9997ZM103.198 30.9766L106.167 30.5523L105.799 27.9766H103.198V30.9766ZM103.974 36.3675L101.006 36.8014L101.624 41.0307L105.392 39.0116L103.974 36.3675ZM108.948 33.701L111.444 32.0369L109.932 29.7691L107.53 31.0571L108.948 33.701ZM109.157 34.014L110.943 36.4239L113.236 34.7244L111.653 32.3499L109.157 34.014ZM104.879 37.179L103.096 34.7665L98.7147 38.0045L103.793 39.9757L104.879 37.179ZM109.481 38.9528L112.423 39.5411L112.919 37.0621L110.56 36.1533L109.481 38.9528ZM109.423 39.3121L108.835 42.2539L112.079 42.9027L112.408 39.6107L109.423 39.3121ZM105.412 38.5006L106.017 35.5622L100.152 34.3547L102.696 39.7753L105.412 38.5006ZM106.722 41.3178L108.596 43.6604L110.447 42.1799L109.435 40.0368L106.722 41.3178ZM106.56 41.4569L104.579 43.7104L106.469 45.3712L108.434 43.7995L106.56 41.4569ZM104.172 39.3585L106.151 37.1046L102.855 34.2088L101.353 38.3317L104.172 39.3585ZM102.525 43.8335L101.989 46.7852L104.457 47.2339L105.335 44.8844L102.525 43.8335ZM102.143 43.7524L99.1541 43.4915L98.9163 46.215L101.606 46.704L102.143 43.7524ZM102.514 39.3701L105.502 39.631L105.713 37.2158L103.396 36.5028L102.514 39.3701ZM102.073 39.2194L102.955 36.3521L101.693 35.9636L100.554 36.6327L102.073 39.2194ZM97.1111 42.1409L94.1519 42.6341L94.8715 46.9514L98.6385 44.723L97.1111 42.1409ZM97.03 41.7236L99.8758 40.774L94.0708 42.2168L97.03 41.7236ZM97.0416 41.7583L99.0231 44.0108C100.565 42.6541 102.12 41.2747 103.884 39.7183L101.899 37.4688L99.9143 35.2193C98.1306 36.7932 96.6017 38.1498 95.0601 39.5059L97.0416 41.7583ZM101.899 37.4688L102.754 34.5932C101.038 34.083 99.5511 33.6416 98.0517 33.1999L97.204 36.0776L96.3563 38.9554C97.8479 39.3948 99.3287 39.8344 101.044 40.3444L101.899 37.4688ZM97.204 36.0776L100.133 36.7284C100.144 36.6757 100.156 36.623 100.167 36.5709C100.179 36.5187 100.191 36.467 100.202 36.4154L97.2734 35.7646L94.3449 35.1138C94.3332 35.1666 94.3215 35.2192 94.3099 35.2713C94.2983 35.3236 94.2869 35.3752 94.2754 35.4268L97.204 36.0776ZM97.2734 35.7646L96.9798 38.7502C98.3942 38.8893 99.8098 39.0286 101.597 39.2026L101.888 36.2167L102.178 33.2309C100.395 33.0571 98.9815 32.9181 97.5671 32.779L97.2734 35.7646ZM101.888 36.2167L104.547 34.8282C103.86 33.5121 103.366 32.5704 102.87 31.6138L100.207 32.9938L97.5428 34.3738C98.0443 35.3417 98.5474 36.3013 99.2282 37.6052L101.888 36.2167ZM100.207 32.9938L101.695 35.5985C101.691 35.6009 101.695 35.5986 101.746 35.5712C101.782 35.5522 101.865 35.5081 101.95 35.4594L100.462 32.8547L98.9732 30.2499C98.9773 30.2476 98.9735 30.2499 98.9221 30.2773C98.8865 30.2963 98.8034 30.3403 98.7182 30.3891L100.207 32.9938ZM100.462 32.8547L98.247 34.8784C98.5547 35.2151 98.8652 35.5546 99.1752 35.8937C99.4854 36.2328 99.7951 36.5715 100.102 36.9072L102.317 34.8835L104.531 32.8598C104.223 32.5231 103.913 32.1835 103.603 31.8445C103.293 31.5053 102.983 31.1667 102.676 30.831L100.462 32.8547ZM102.317 34.8835L102.967 37.8121C103.086 37.7856 103.199 37.7555 103.242 37.7442C103.309 37.7265 103.307 37.7277 103.292 37.7309L102.641 34.8024L101.99 31.8738C101.871 31.9002 101.759 31.9303 101.715 31.9417C101.648 31.9593 101.651 31.9582 101.666 31.9549L102.317 34.8835ZM102.641 34.8024L105.638 34.9398C105.696 33.6742 105.753 32.4234 105.822 31.1631L102.827 30.9997L99.8311 30.8364C99.7608 32.1267 99.7022 33.4032 99.6443 34.6649L102.641 34.8024ZM102.827 30.9997V33.9997C102.949 33.9997 103.054 33.9942 103.132 33.9887C103.205 33.9835 103.272 33.977 103.297 33.9746C103.333 33.9712 103.327 33.9719 103.315 33.9727C103.298 33.9739 103.256 33.9766 103.198 33.9766V30.9766V27.9766C103.076 27.9766 102.971 27.9821 102.892 27.9876C102.819 27.9928 102.752 27.9993 102.728 28.0017C102.691 28.0051 102.697 28.0044 102.709 28.0036C102.726 28.0024 102.768 27.9997 102.827 27.9997V30.9997ZM103.198 30.9766L100.228 31.4008C100.471 33.1049 100.715 34.8135 101.006 36.8014L103.974 36.3675L106.943 35.9335C106.654 33.9564 106.411 32.2567 106.167 30.5523L103.198 30.9766ZM103.974 36.3675L105.392 39.0116C107.166 38.0608 108.766 37.2028 110.366 36.3449L108.948 33.701L107.53 31.0571C105.93 31.915 104.331 32.7728 102.557 33.7233L103.974 36.3675ZM108.948 33.701L106.452 35.3651C106.486 35.4169 106.521 35.4687 106.556 35.5209C106.59 35.5731 106.625 35.6256 106.66 35.6781L109.157 34.014L111.653 32.3499C111.618 32.2981 111.584 32.2463 111.549 32.1941C111.514 32.1419 111.479 32.0894 111.444 32.0369L108.948 33.701ZM109.157 34.014L107.37 31.6041C106.027 32.5996 104.696 33.5837 103.096 34.7665L104.879 37.179L106.662 39.5915C108.261 38.4092 109.596 37.4225 110.943 36.4239L109.157 34.014ZM104.879 37.179L103.793 39.9757C105.56 40.6614 106.998 41.2109 108.403 41.7522L109.481 38.9528L110.56 36.1533C109.136 35.6049 107.722 35.0646 105.964 34.3823L104.879 37.179ZM109.481 38.9528L106.539 38.3644C106.513 38.4987 106.465 38.7449 106.438 39.0136L109.423 39.3121L112.408 39.6107C112.407 39.6256 112.406 39.6343 112.405 39.6356C112.405 39.6372 112.406 39.6343 112.407 39.6263C112.41 39.6091 112.415 39.5825 112.423 39.5411L109.481 38.9528ZM109.423 39.3121L110.012 36.3704C108.795 36.127 107.585 35.885 106.017 35.5622L105.412 38.5006L104.807 41.439C106.393 41.7655 107.617 42.0104 108.835 42.2539L109.423 39.3121ZM105.412 38.5006L102.696 39.7753C103.18 40.8064 103.64 41.8169 104.009 42.5988L106.722 41.3178L109.435 40.0368C109.016 39.1492 108.71 38.4671 108.128 37.2259L105.412 38.5006ZM106.722 41.3178L104.848 38.9752C104.796 39.0171 104.751 39.0545 104.718 39.0833C104.687 39.1104 104.659 39.1354 104.648 39.1449C104.633 39.1586 104.635 39.1567 104.639 39.1529C104.646 39.1472 104.662 39.133 104.686 39.1143L106.56 41.4569L108.434 43.7995C108.486 43.7576 108.53 43.7202 108.564 43.6914C108.595 43.6643 108.623 43.6393 108.634 43.6298C108.649 43.6161 108.647 43.618 108.643 43.6218C108.636 43.6275 108.619 43.6417 108.596 43.6604L106.722 41.3178ZM106.56 41.4569L108.54 39.2034C107.775 38.5311 107.01 37.8584 106.151 37.1046L104.172 39.3585L102.192 41.6125C103.049 42.3658 103.814 43.0379 104.579 43.7104L106.56 41.4569ZM104.172 39.3585L101.353 38.3317C100.762 39.9534 100.244 41.3694 99.7153 42.7827L102.525 43.8335L105.335 44.8844C105.873 43.4458 106.399 42.0097 106.99 40.3854L104.172 39.3585ZM102.525 43.8335L103.062 40.8819C103.073 40.884 103.074 40.8846 102.999 40.8676C102.946 40.8556 102.818 40.8261 102.679 40.8008L102.143 43.7524L101.606 46.704C101.594 46.7019 101.594 46.7013 101.669 46.7183C101.722 46.7303 101.849 46.7599 101.989 46.7852L102.525 43.8335ZM102.143 43.7524L105.131 44.0133C105.196 43.276 105.257 42.5397 105.318 41.8103C105.379 41.079 105.439 40.3545 105.502 39.631L102.514 39.3701L99.525 39.1092C99.4606 39.8465 99.3993 40.5828 99.3385 41.3122C99.2776 42.0435 99.2172 42.768 99.1541 43.4915L102.143 43.7524ZM102.514 39.3701L103.396 36.5028C103.399 36.5037 103.392 36.5018 103.31 36.4721C103.247 36.4496 103.109 36.3994 102.955 36.3521L102.073 39.2194L101.191 42.0867C101.188 42.0858 101.195 42.0878 101.277 42.1174C101.34 42.1399 101.478 42.1902 101.631 42.2375L102.514 39.3701ZM102.073 39.2194L100.554 36.6327C98.8965 37.6061 97.2346 38.5823 95.5837 39.5589L97.1111 42.1409L98.6385 44.723C100.28 43.7519 101.934 42.7804 103.593 41.8061L102.073 39.2194ZM97.1111 42.1409L100.07 41.6477C100.047 41.5089 100.02 41.3804 100.008 41.321C99.9999 41.2838 99.9957 41.2636 99.9922 41.2459C99.989 41.2298 99.9885 41.2263 99.9892 41.2304L97.03 41.7236L94.0708 42.2168C94.094 42.3555 94.1211 42.4841 94.1335 42.5435C94.1413 42.5807 94.1454 42.6009 94.1489 42.6186C94.1521 42.6347 94.1526 42.6382 94.1519 42.6341L97.1111 42.1409ZM97.03 41.7236L94.1843 42.6731L94.1959 42.7079L97.0416 41.7583L99.8874 40.8088L99.8758 40.774L97.03 41.7236Z" fill="#F5F8FF" mask="url(#path-19-inside-3_1568_2345)"/>
<mask id="path-21-inside-4_1568_2345" fill="white">
<path d="M272.947 108.767C272.947 108.906 272.947 109.045 272.959 109.184C274.257 109.323 275.556 109.451 276.935 109.59C276.309 110.668 275.811 111.549 275.3 112.419C275.416 112.488 275.521 112.546 275.637 112.616C276.332 111.746 277.028 110.888 277.897 109.799C278.315 111.225 278.639 112.384 278.975 113.532C279.068 113.52 279.15 113.508 279.242 113.497C279.254 112.442 279.277 111.387 279.289 110.181C280.622 110.529 281.758 110.842 282.894 111.143C282.372 110.332 281.746 109.856 281.086 109.428C279.88 108.639 279.88 108.396 281.086 107.549C281.48 107.271 281.862 106.97 282.256 106.692C282.187 106.587 282.129 106.483 282.059 106.379C281.213 106.726 280.378 107.074 279.231 107.561C279.358 106.251 279.451 105.219 279.544 104.187C279.463 104.187 279.381 104.187 279.289 104.176C278.836 105.254 278.396 106.321 277.805 107.723L275.405 104.489C275.312 104.547 275.231 104.605 275.138 104.663C275.706 105.764 276.286 106.877 276.97 108.187C275.428 108.419 274.188 108.604 272.947 108.79V108.767Z"/>
</mask>
<path d="M272.947 108.767C272.947 108.906 272.947 109.045 272.959 109.184C274.257 109.323 275.556 109.451 276.935 109.59C276.309 110.668 275.811 111.549 275.3 112.419C275.416 112.488 275.521 112.546 275.637 112.616C276.332 111.746 277.028 110.888 277.897 109.799C278.315 111.225 278.639 112.384 278.975 113.532C279.068 113.52 279.15 113.508 279.242 113.497C279.254 112.442 279.277 111.387 279.289 110.181C280.622 110.529 281.758 110.842 282.894 111.143C282.372 110.332 281.746 109.856 281.086 109.428C279.88 108.639 279.88 108.396 281.086 107.549C281.48 107.271 281.862 106.97 282.256 106.692C282.187 106.587 282.129 106.483 282.059 106.379C281.213 106.726 280.378 107.074 279.231 107.561C279.358 106.251 279.451 105.219 279.544 104.187C279.463 104.187 279.381 104.187 279.289 104.176C278.836 105.254 278.396 106.321 277.805 107.723L275.405 104.489C275.312 104.547 275.231 104.605 275.138 104.663C275.706 105.764 276.286 106.877 276.97 108.187C275.428 108.419 274.188 108.604 272.947 108.79V108.767Z" fill="black"/>
<path d="M272.959 109.184L269.969 109.433L270.175 111.903L272.639 112.167L272.959 109.184ZM276.935 109.59L279.53 111.096L281.866 107.072L277.236 106.605L276.935 109.59ZM275.3 112.419L272.713 110.901L271.21 113.463L273.757 114.991L275.3 112.419ZM275.637 112.616L274.093 115.188L276.341 116.537L277.979 114.49L275.637 112.616ZM277.897 109.799L280.777 108.956L279.154 103.413L275.552 107.927L277.897 109.799ZM278.975 113.532L276.096 114.375L276.814 116.825L279.348 116.508L278.975 113.532ZM279.242 113.497L279.614 116.474L282.213 116.149L282.242 113.53L279.242 113.497ZM279.289 110.181L280.046 107.278L276.326 106.308L276.289 110.152L279.289 110.181ZM282.894 111.143L282.125 114.043L289.599 116.026L285.418 109.521L282.894 111.143ZM281.086 109.428L279.444 111.938L279.452 111.944L281.086 109.428ZM281.086 107.549L282.809 110.005L282.816 110L281.086 107.549ZM282.256 106.692L283.987 109.142L286.373 107.458L284.753 105.027L282.256 106.692ZM282.059 106.379L284.555 104.714L283.192 102.669L280.919 103.604L282.059 106.379ZM279.231 107.561L276.245 107.27L275.756 112.294L280.402 110.323L279.231 107.561ZM279.544 104.187L282.532 104.456L282.825 101.187H279.544V104.187ZM279.289 104.176L279.661 101.199L277.402 100.917L276.522 103.016L279.289 104.176ZM277.805 107.723L275.395 109.511L278.528 113.732L280.569 108.889L277.805 107.723ZM275.405 104.489L277.814 102.701L276.164 100.477L273.815 101.945L275.405 104.489ZM275.138 104.663L273.548 102.119L271.206 103.583L272.472 106.038L275.138 104.663ZM276.97 108.187L277.416 111.154L281.576 110.528L279.629 106.799L276.97 108.187ZM272.947 108.79H269.947V112.272L273.391 111.757L272.947 108.79ZM272.947 108.767H269.947C269.947 108.886 269.945 109.149 269.969 109.433L272.959 109.184L275.948 108.935C275.949 108.946 275.948 108.942 275.948 108.913C275.947 108.88 275.947 108.841 275.947 108.767H272.947ZM272.959 109.184L272.639 112.167C273.95 112.307 275.265 112.437 276.634 112.575L276.935 109.59L277.236 106.605C275.846 106.465 274.564 106.339 273.278 106.201L272.959 109.184ZM276.935 109.59L274.341 108.083C273.685 109.212 273.226 110.025 272.713 110.901L275.3 112.419L277.888 113.937C278.395 113.073 278.933 112.124 279.53 111.096L276.935 109.59ZM275.3 112.419L273.757 114.991C273.838 115.04 273.912 115.083 273.965 115.113C274.022 115.146 274.058 115.167 274.093 115.188L275.637 112.616L277.18 110.043C277.099 109.995 277.025 109.952 276.972 109.921C276.915 109.888 276.879 109.867 276.844 109.846L275.3 112.419ZM275.637 112.616L277.979 114.49C278.645 113.657 279.385 112.744 280.242 111.67L277.897 109.799L275.552 107.927C274.67 109.033 274.019 109.835 273.294 110.742L275.637 112.616ZM277.897 109.799L275.018 110.641C275.224 111.345 275.408 111.985 275.583 112.596C275.758 113.205 275.925 113.791 276.096 114.375L278.975 113.532L281.855 112.688C281.689 112.124 281.527 111.556 281.351 110.943C281.175 110.331 280.988 109.678 280.777 108.956L277.897 109.799ZM278.975 113.532L279.348 116.508C279.408 116.501 279.463 116.494 279.505 116.488C279.55 116.482 279.582 116.478 279.614 116.474L279.242 113.497L278.87 110.52C278.81 110.527 278.755 110.535 278.713 110.54C278.668 110.546 278.636 110.551 278.603 110.555L278.975 113.532ZM279.242 113.497L282.242 113.53C282.252 112.586 282.277 111.349 282.288 110.21L279.289 110.181L276.289 110.152C276.276 111.425 276.255 112.298 276.242 113.464L279.242 113.497ZM279.289 110.181L278.531 113.084C279.867 113.432 280.944 113.73 282.125 114.043L282.894 111.143L283.663 108.244C282.572 107.954 281.376 107.625 280.046 107.278L279.289 110.181ZM282.894 111.143L285.418 109.521C284.56 108.187 283.525 107.434 282.719 106.911L281.086 109.428L279.452 111.944C279.968 112.279 280.184 112.476 280.37 112.766L282.894 111.143ZM281.086 109.428L282.727 106.917C282.435 106.725 282.425 106.698 282.501 106.772C282.547 106.817 283.181 107.422 283.181 108.51C283.181 109.572 282.573 110.165 282.552 110.186C282.492 110.248 282.516 110.211 282.809 110.005L281.086 107.549L279.362 105.094C279.052 105.311 278.624 105.622 278.262 105.992C277.94 106.321 277.181 107.183 277.181 108.51C277.181 109.863 277.966 110.73 278.313 111.069C278.691 111.437 279.134 111.736 279.444 111.938L281.086 109.428ZM281.086 107.549L282.816 110C283.051 109.835 283.276 109.666 283.465 109.525C283.665 109.376 283.827 109.255 283.987 109.142L282.256 106.692L280.526 104.241C280.292 104.406 280.066 104.575 279.877 104.716C279.677 104.865 279.515 104.986 279.355 105.099L281.086 107.549ZM282.256 106.692L284.753 105.027C284.756 105.032 284.754 105.03 284.717 104.97C284.69 104.926 284.628 104.823 284.555 104.714L282.059 106.379L279.563 108.043C279.56 108.038 279.562 108.04 279.598 108.1C279.626 108.145 279.688 108.247 279.76 108.356L282.256 106.692ZM282.059 106.379L280.919 103.604C280.062 103.956 279.217 104.308 278.059 104.799L279.231 107.561L280.402 110.323C281.54 109.84 282.364 109.497 283.2 109.153L282.059 106.379ZM279.231 107.561L282.217 107.852C282.345 106.53 282.439 105.488 282.532 104.456L279.544 104.187L276.556 103.919C276.463 104.95 276.371 105.972 276.245 107.27L279.231 107.561ZM279.544 104.187V101.187C279.521 101.187 279.514 101.187 279.509 101.187C279.506 101.187 279.512 101.187 279.524 101.188C279.55 101.189 279.598 101.191 279.661 101.199L279.289 104.176L278.916 107.153C279.218 107.19 279.474 107.187 279.544 107.187V104.187ZM279.289 104.176L276.522 103.016C276.059 104.12 275.633 105.151 275.04 106.558L277.805 107.723L280.569 108.889C281.159 107.49 281.614 106.388 282.055 105.336L279.289 104.176ZM277.805 107.723L280.214 105.936L277.814 102.701L275.405 104.489L272.996 106.276L275.395 109.511L277.805 107.723ZM275.405 104.489L273.815 101.945C273.725 102.001 273.646 102.054 273.607 102.08C273.584 102.095 273.572 102.103 273.561 102.111C273.551 102.117 273.548 102.119 273.548 102.119L275.138 104.663L276.728 107.207C276.818 107.151 276.897 107.098 276.936 107.072C276.959 107.056 276.971 107.048 276.982 107.041C276.992 107.035 276.995 107.032 276.995 107.033L275.405 104.489ZM275.138 104.663L272.472 106.038C273.044 107.146 273.626 108.264 274.311 109.576L276.97 108.187L279.629 106.799C278.946 105.49 278.369 104.382 277.804 103.287L275.138 104.663ZM276.97 108.187L276.524 105.22C274.983 105.452 273.744 105.637 272.503 105.823L272.947 108.79L273.391 111.757C274.631 111.571 275.873 111.386 277.416 111.154L276.97 108.187ZM272.947 108.79H275.947V108.767H272.947H269.947V108.79H272.947Z" fill="#F5F8FF" mask="url(#path-21-inside-4_1568_2345)"/>
<path d="M249.415 48.4473C249.44 48.8347 249.573 49.1616 249.737 49.4307L248.544 49.1113L248.466 48.8438L249.415 48.4473Z" fill="black" stroke="#F5F8FF" stroke-width="3"/>
<path d="M128.798 279.955C128.823 280.343 128.956 280.669 129.12 280.938L127.927 280.619L127.849 280.352L128.798 279.955Z" fill="black" stroke="#F5F8FF" stroke-width="3"/>

</svg>
