<svg width="1494" height="1493" viewBox="0 0 1494 1493" fill="none" xmlns="http://www.w3.org/2000/svg">
<path d="M137.359 753.922C149.742 745.992 172.683 738.185 212.604 744.335L213.471 744.469H215.114L215.209 746.87C215.373 751.015 215.483 755.214 215.537 759.358L215.581 762.195C215.688 768.354 215.878 774.586 216.465 780.677L216.607 782.079L216.612 782.117L216.615 782.155L217.968 799.847L221.316 825.981L225.959 851.893L231.897 877.537L234.974 888.218L236.151 892.309L232.005 891.345L229.675 890.803L227.934 890.388C210.116 886 197.438 878.609 186.446 872.245L186.438 872.24C173.508 864.689 162.849 858.537 147.065 857.547H147.054V857.546C136.392 856.825 130.525 859.04 121.8 862.379L121.797 862.38C112.314 865.998 100.378 870.577 77.5205 873.27L77.5029 873.271C62.8185 874.897 49.8936 874.81 39.6201 874.066C39.6103 874.068 39.6017 874.072 39.5938 874.073C39.5227 874.087 39.46 874.098 39.415 874.106C39.3925 874.11 39.3736 874.114 39.3594 874.116C39.3522 874.117 39.3455 874.118 39.3408 874.119C39.3386 874.12 39.3366 874.121 39.335 874.121H39.3311L36.4209 874.605V873.838C33.3436 873.558 30.5555 873.251 28.085 872.942L28.0811 872.941L23.7949 872.399L16.1729 871.435L22.9023 867.729L26.6475 865.667C34.9502 861.06 42.9878 855.809 50.4893 850.129L50.5 850.121L52.4521 848.644C62.162 841.218 71.0465 833.248 78.8848 824.957C93.2629 809.558 101.899 796.474 109.627 784.314C117.346 771.89 125.071 761.757 137.359 753.922ZM211.068 806.891C194.224 804.455 179.181 805.302 165.174 809.324L165.175 809.325C161.017 810.536 158.023 811.743 155.04 812.936C140.943 818.661 133.679 824.29 124.217 831.535L124.21 831.541C118.805 835.649 112.66 840.421 104.228 845.898L102.887 846.811L102.873 846.819L102.859 846.829C96.7648 850.856 88.3357 856.422 76.3848 861.984C72.8351 863.649 69.3871 865.107 66.0762 866.39C69.4688 866.186 72.9881 865.892 76.6211 865.481L79.4023 865.168V865.189C99.4832 862.586 110.193 858.445 118.981 855.104L121.813 854.027C128.347 851.574 134.492 849.622 143.099 849.622C144.52 849.622 146.044 849.679 147.616 849.791H147.615C165.294 850.921 177.744 858.166 190.413 865.529H190.414C200.595 871.411 210.872 877.379 224.891 881.483L224.359 879.607L224.343 879.547L224.328 879.486L218.359 853.551L218.346 853.49L218.334 853.429L213.669 827.222L213.658 827.161L213.65 827.101L211.068 806.891ZM207.614 751.487C170.046 746.472 150.139 755.067 141.687 760.519L141.676 760.525C130.751 767.497 123.719 776.617 116.357 788.492L116.35 788.504L116.342 788.517C108.443 800.936 99.5028 814.434 84.6436 830.335L84.6377 830.341L84.6328 830.347C75.9574 839.516 66.0825 848.292 55.2305 856.403L53.4756 857.715L53.4131 857.65C49.7005 860.369 45.8889 863.002 41.9951 865.51C49.9528 863.713 60.8695 860.473 72.9658 854.797L72.9775 854.791L74.0391 854.295C84.8978 849.176 92.6387 844.054 98.4609 840.225L99.8037 839.312L99.8271 839.296L99.8516 839.28C106.007 835.297 110.893 831.709 115.219 828.423L119.384 825.234C129.081 817.771 136.895 811.74 152.031 805.586L152.037 805.583L154.412 804.636C156.847 803.682 159.512 802.709 162.896 801.706L162.918 801.7C177.556 797.503 193.034 796.586 210.089 798.801L208.868 782.825L208.722 781.355C208.027 773.997 207.922 766.534 207.771 759.448V759.435C207.728 756.774 207.683 754.128 207.614 751.487Z" fill="#C1B265" stroke="#C1B265" stroke-width="5"/>
<path d="M234.966 887.959L235.123 887.939V888.523L235.573 890.146C247.313 932.484 265.651 975.011 290.139 1016.64L291.31 1018.62L291.323 1018.64L292.517 1020.71L294.579 1024.27L290.467 1024.45L288.08 1024.56L288.078 1024.56C269.819 1025.38 255.284 1021.94 242.664 1018.67V1018.79L239.53 1017.97C226.14 1014.46 214.362 1011.94 199.561 1015.12L199.55 1015.12L199.54 1015.13C189.042 1017.29 183.987 1021.07 176.549 1026.62C168.431 1032.71 158.258 1040.33 136.94 1049.12L136.937 1049.12C122.737 1054.94 109.995 1058.28 100.471 1060.27C100.445 1060.28 100.423 1060.29 100.405 1060.3C100.346 1060.32 100.291 1060.35 100.251 1060.36C100.231 1060.37 100.215 1060.38 100.203 1060.38C100.197 1060.39 100.193 1060.39 100.189 1060.39C100.188 1060.39 100.186 1060.39 100.186 1060.39L100.185 1060.39H100.184L96.7002 1061.88V1061C93.7708 1061.54 91.2365 1061.96 89.1914 1062.25L89.1826 1062.25L84.8955 1062.85L77.5107 1063.88L85.835 1055.55C96.6051 1044.94 112.16 1027.08 125.031 1002.2L125.057 1002.15C133.778 986.152 137.843 973.325 141.471 961.794L141.479 961.769L142.662 958.108C143.042 956.93 143.415 955.768 143.811 954.554L144.4 952.678L144.406 952.661L144.411 952.644C148.575 940.044 152.237 928.689 162.255 917.822C172.178 906.826 192.308 893.108 232.323 888.277L233.317 888.158L234.891 887.685L234.966 887.959ZM229.187 896.565C191.815 901.826 174.775 915.521 168.014 923.034L168.006 923.043L167.997 923.053C159.241 932.586 155.902 942.665 151.875 955.018L151.285 956.892L151.282 956.903L151.278 956.915C150.522 959.237 149.766 961.614 149.01 964.046L149.006 964.058C145.31 975.743 141.072 989.18 131.995 1005.79L131.284 1007.09H131.202C121.419 1025.64 110.279 1040.34 100.695 1051.13C107.834 1047.24 117.373 1041.2 127.514 1032.49L128.447 1031.68C137.973 1023.31 144.528 1015.78 148.919 1010.66L149.262 1010.22L149.301 1010.17L149.342 1010.12C155.732 1002.71 160.24 996.595 164.255 991.17L164.26 991.164L164.265 991.157C165.709 989.232 167.091 987.351 168.51 985.496L168.52 985.482C174.239 978.106 180.057 971.61 189.484 964.258L190.407 963.544C192.939 961.563 195.828 959.397 199.874 956.848L199.881 956.844L199.888 956.839C212.885 948.768 227.519 943.686 244.422 941.23C238.595 926.39 233.477 911.462 229.187 896.565ZM247.423 948.768C230.691 950.968 216.463 955.793 204.048 963.526L204.043 963.529C200.314 965.84 197.808 967.823 195.238 969.792L195.237 969.791C185.958 976.95 180.358 983.131 174.822 990.261L172.759 992.986C172.067 993.906 171.373 994.841 170.679 995.803L170.651 995.84C166.604 1001.24 162.001 1007.54 155.389 1015.19L155.052 1015.62L155.01 1015.68L154.966 1015.73C150.289 1021.11 143.191 1029.31 132.684 1038.39C129.685 1040.99 126.729 1043.35 123.864 1045.51C126.544 1044.58 129.306 1043.56 132.137 1042.44L133.906 1041.72C150.645 1034.8 160.135 1028.72 167.322 1023.54L171.768 1020.22C179.076 1014.77 185.199 1010.21 196.689 1007.6L197.818 1007.36C214.423 1003.76 227.544 1006.61 241.295 1010.26C252.925 1013.29 265.581 1016.57 281.015 1016.81C268.019 994.356 256.836 971.59 247.423 948.768Z" fill="#C1B265" stroke="#C1B265" stroke-width="5"/>
<path d="M293.561 1022.37C306.147 1042.57 319.867 1061.86 334.284 1079.68C347.775 1095.77 363.958 1114.37 382.215 1131.07L384.004 1132.69L387.187 1135.59L383.097 1136.92L380.764 1137.68L380.763 1137.68C372.294 1140.45 363.878 1142.27 354.326 1143.32L354.312 1143.32L354.296 1143.33C348.057 1143.93 342.269 1144.04 336.803 1144.15C335.212 1144.2 333.621 1144.26 332.025 1144.26L332.026 1144.26C317.611 1144.58 305.947 1145.45 292.81 1152.28L292.794 1152.29C283.341 1157.12 279.501 1162.15 273.779 1169.54L273.78 1169.54C267.584 1177.6 259.787 1187.77 241.65 1201.95L241.645 1201.95C229.989 1211.01 218.868 1217.65 209.758 1222.36C209.75 1222.37 209.744 1222.38 209.738 1222.39C209.727 1222.4 209.718 1222.4 209.712 1222.41C209.709 1222.41 209.707 1222.42 209.705 1222.42C209.704 1222.42 209.704 1222.42 209.703 1222.42H209.702L207.936 1224.18L207.337 1223.59C204.41 1225.05 201.729 1226.31 199.359 1227.38L199.348 1227.39L199.336 1227.39L195.375 1229.13L188.504 1232.14L192.194 1225.61L194.31 1221.86L195.18 1220.31C199.499 1212.52 203.378 1204.42 206.641 1196.13C211.258 1184.37 214.965 1172.18 217.704 1159.88C219.738 1150.67 221.023 1141.79 221.72 1131.98L221.722 1131.95L221.725 1131.92C222.474 1123.9 222.635 1116.88 222.798 1110.05V1109.24L222.799 1109.22C223.017 1096.15 223.715 1082.86 230.652 1068.81C237.104 1055.58 252.659 1036.98 289.936 1021.44L291.104 1020.95L292.236 1020.24L293.561 1022.37ZM289.277 1030.21C263.435 1041.66 245.369 1056.56 237.746 1072.21L237.736 1072.23C231.549 1084.66 230.89 1096.64 230.674 1109.3V1110.19C230.511 1117.06 230.346 1124.29 229.581 1132.56L229.582 1132.56C228.814 1142.71 227.496 1151.94 225.408 1161.55L225.407 1161.56C222.873 1173.08 219.481 1184.52 215.317 1195.58H215.431L214.054 1199.01C212.072 1203.95 209.913 1208.84 207.577 1213.65C213.206 1208.18 220.448 1200.19 227.571 1189.64L228.368 1188.45C235.678 1177.41 240.06 1168.02 242.98 1161.74L243.198 1161.25L243.209 1161.23L243.221 1161.2C247.189 1152.78 249.816 1145.87 252.207 1139.73L253.038 1137.56C257.163 1126.81 260.969 1117.75 270.162 1105.23L270.167 1105.22L271.632 1103.26C273.18 1101.22 275.009 1098.91 277.433 1096.24L277.441 1096.23L278.474 1095.12C288.574 1084.42 301.011 1075.91 316.178 1069.16C306.825 1056.7 297.793 1043.68 289.277 1030.21ZM320.965 1075.58C305.373 1082.24 293.012 1090.77 283.138 1101.56L283.137 1101.56C280.19 1104.82 278.192 1107.51 276.419 1109.92L276.416 1109.93C267.236 1122.4 263.859 1131.15 259.482 1142.55L259.48 1142.55C257.09 1148.74 254.35 1155.82 250.239 1164.53L250.045 1164.97L250.036 1164.99L250.026 1165.01C247.033 1171.43 242.467 1181.23 234.817 1192.79L234.816 1192.79C232.608 1196.12 230.382 1199.22 228.188 1202.09C230.989 1200.15 233.858 1198.05 236.777 1195.79L238.375 1194.52C253.545 1182.42 260.759 1173.56 266.395 1166.29L267.54 1164.81C273.332 1157.27 278.168 1151.04 289.202 1145.35L289.893 1144.99C303.456 1138.13 315.992 1136.9 329.17 1136.51L331.859 1136.44C333.417 1136.39 335.024 1136.33 336.691 1136.33L336.703 1136.38C342.111 1136.27 347.577 1136.22 353.405 1135.58C359.991 1134.81 365.959 1133.72 371.769 1132.17C355.17 1116.39 340.455 1099.41 328.101 1084.66L328.088 1084.64L328.074 1084.62C325.687 1081.68 323.304 1078.61 320.965 1075.58Z" fill="#C1B265" stroke="#C1B265" stroke-width="5"/>
<path d="M383.428 1142.88C354.023 1166.98 346.706 1187.43 344.958 1197.27L344.956 1197.28L344.954 1197.29C342.714 1209.32 344.51 1219.87 347.51 1232.43L348.125 1234.97L348.129 1234.99L348.133 1235.01L348.285 1235.67C349.905 1241.89 351.646 1248.37 353.124 1255.89L353.417 1257.41L353.419 1257.42L353.741 1259.22C355.215 1267.6 356.273 1275.97 356.95 1284.69L357.09 1286.56L357.091 1286.57V1286.58C357.914 1299.58 357.584 1312.81 356.103 1325.81L355.516 1330.96L355.431 1330.88C354.951 1334.51 354.387 1338.08 353.752 1341.59C357.871 1334.59 362.935 1324.49 367.028 1311.74L367.031 1311.73L367.391 1310.62C371.035 1299.16 372.628 1289.88 373.835 1282.95L374.105 1281.38L374.106 1281.37L374.407 1279.6C375.857 1270.88 376.509 1263.89 377.119 1257.58L377.55 1253.13C378.578 1242.94 379.939 1233.74 385.031 1220.36L385.035 1220.35L385.548 1219.03C386.742 1215.99 387.941 1213.21 389.689 1209.71L389.693 1209.7L389.697 1209.69C396.664 1196.02 406.57 1184.07 419.713 1173.24C408.339 1164.58 396.452 1154.63 383.428 1142.88ZM426.103 1178.16C412.952 1188.67 403.32 1200.18 396.65 1213.32C394.811 1217 393.71 1219.83 392.351 1223.25C386.95 1237.51 386.052 1246.56 384.974 1258.37L384.973 1258.38C384.322 1265.11 383.608 1272.85 381.853 1282.78V1282.78L381.582 1284.3C380.333 1291.52 378.626 1301.59 374.557 1314.14L374.558 1314.14C373.371 1317.86 372.094 1321.36 370.78 1324.65C372.947 1322.04 375.137 1319.27 377.334 1316.33C390.396 1298.5 394.97 1287.32 398.613 1278.26L398.617 1278.25L399.277 1276.63C402.565 1268.59 405.724 1261.66 414.258 1253.71C427.158 1241.49 440.989 1237.35 455.013 1233.12L459.632 1231.73L459.583 1231.88C469.349 1228.86 479.284 1225.42 490.133 1218.99C486.783 1217.18 483.578 1215.34 480.508 1213.52L480.5 1213.52C478.518 1212.34 476.532 1211.21 474.521 1210.07L474.519 1210.07C471.362 1208.28 468.242 1206.47 465.114 1204.55L465.044 1204.5C462.022 1202.51 459.034 1200.64 455.959 1198.66V1198.66C449.225 1194.35 442.103 1189.86 435.407 1184.82L430.04 1181.01C428.735 1180.08 427.42 1179.13 426.103 1178.16ZM503.485 1219.77L502.359 1220.51L500.297 1221.87C485.338 1231.89 471.635 1236.36 459.648 1240.01L457.273 1240.73C442.916 1245.08 431.09 1248.64 419.579 1259.52L419.57 1259.53L419.562 1259.54C411.74 1266.8 409.357 1272.65 405.854 1281.27C402.068 1290.66 397.254 1302.48 383.632 1321.04L383.622 1321.05C374.767 1332.95 365.801 1342.38 358.269 1349.39C358.262 1349.39 358.259 1349.4 358.255 1349.41C358.219 1349.46 358.187 1349.5 358.164 1349.54C358.152 1349.55 358.143 1349.57 358.136 1349.58C358.132 1349.58 358.129 1349.58 358.126 1349.59C358.125 1349.59 358.124 1349.59 358.123 1349.59L358.12 1349.6L357.37 1350.6H356.979C354.334 1353.02 351.845 1355.16 349.688 1356.96L349.688 1356.96L346.379 1359.73L340.518 1364.63L342.348 1357.22L343.378 1353.04L343.38 1353.03L343.785 1351.38C345.78 1343.07 347.305 1334.2 348.312 1324.99L348.312 1324.98L348.313 1324.97C349.761 1312.43 350.083 1299.67 349.28 1287.13L349.145 1285.3C348.438 1276.19 347.345 1267.53 345.736 1258.88L345.452 1257.42C344.014 1250.16 342.357 1243.83 340.729 1237.67H340.729L340.526 1236.96L340.512 1236.91L340.5 1236.86C337.076 1222.73 334.563 1210.4 337.216 1195.89C339.345 1183.99 348.016 1160.63 381.647 1134.25L382.436 1133.64L383.53 1132.39L385.414 1134.1C405.175 1152.08 422.055 1165.81 438.472 1177.23L440.06 1178.33L440.098 1178.36L440.135 1178.38C446.614 1183.2 453.539 1187.66 460.314 1191.94L462.606 1193.38C464.889 1194.83 467.171 1196.31 469.453 1197.82C472.381 1199.62 475.427 1201.3 478.562 1203.12L481.585 1204.84C482.091 1205.13 482.598 1205.42 483.105 1205.72L484.629 1206.62L484.631 1206.62L486.449 1207.7C490.421 1210.03 494.592 1212.38 498.863 1214.5L499.851 1214.98L499.855 1214.98L502.081 1216.07L503.485 1216.75V1219.77Z" fill="#C1B265" stroke="#C1B265" stroke-width="5"/>
<path d="M503.877 1217.07C543.811 1237.9 588.14 1253.73 635.732 1264.05L638.065 1264.54L642.261 1265.41L639.432 1268.63L637.857 1270.42L637.11 1271.27H637.058C624.001 1286.13 610.42 1294.67 599.647 1301.39C588.046 1308.73 578.173 1315.63 570.41 1328.6L570.403 1328.61L570.397 1328.62C564.79 1337.78 564.124 1344.03 563.1 1353.25L563.101 1353.25C562.003 1363.29 560.616 1375.95 552.483 1397.54L552.479 1397.55C547.017 1411.83 540.859 1423.34 535.791 1431.66C535.78 1431.7 535.772 1431.73 535.767 1431.75C535.738 1431.84 535.71 1431.92 535.689 1431.98C535.679 1432.01 535.669 1432.03 535.661 1432.05C535.657 1432.06 535.654 1432.07 535.651 1432.08C535.65 1432.08 535.649 1432.09 535.647 1432.09L535.645 1432.1V1432.1L533.323 1431.17L535.644 1432.1L535.015 1433.67H534.599C532.648 1436.77 530.889 1439.42 529.511 1441.39L529.503 1441.4L527.008 1444.93L522.658 1451.08L522.468 1443.55L522.359 1439.27L522.313 1437.83C521.773 1422.73 519.223 1399.83 510.131 1374.22L510.124 1374.2L510.118 1374.18C506.955 1364.8 503.369 1356.24 499.144 1347.95L498.239 1346.21C496.135 1342.22 494.068 1338.56 492.026 1334.95L492.023 1334.95L492.02 1334.94C490.718 1332.61 489.412 1330.27 488.158 1327.98L488.154 1327.97L487.127 1326.08L485.948 1323.93C480.099 1313.24 474.982 1303.23 473.969 1289.49L473.914 1288.8C472.836 1273.98 476.804 1250.15 500.215 1218.14L501.384 1216.54L501.714 1215.94L503.877 1217.07ZM504.272 1226.13C483.335 1256.07 481.106 1277.44 481.803 1287.9L481.88 1288.9L481.882 1288.92L481.884 1288.94C482.758 1300.98 487.285 1309.87 492.965 1320.27L494.115 1322.37L494.119 1322.38L495.147 1324.27L497.046 1327.71L498.99 1331.2L498.995 1331.21L500.727 1334.33C502.197 1336.97 503.728 1339.72 505.267 1342.63L506.19 1344.4L506.191 1344.4L507.019 1346.03C511.089 1354.12 514.544 1362.5 517.566 1371.49L517.613 1371.59L517.665 1371.74C524.872 1392.1 528.135 1410.79 529.51 1425.48C531.541 1417.6 533.637 1406.53 534.188 1393.19C534.723 1379.88 533.601 1369.51 532.792 1362.61L532.775 1362.46V1361.85C531.703 1352.19 530.368 1344.76 529.13 1338.2L529.127 1338.19L529.125 1338.17C528.699 1335.77 528.254 1333.44 527.872 1331.15L527.87 1331.13L527.868 1331.12C526.427 1321.83 525.649 1313.14 526.711 1301.32L526.819 1300.16C527.092 1297 527.428 1293.37 528.375 1288.69L528.684 1287.2C531.78 1272.76 537.921 1259.09 547.339 1245.52C532.514 1239.66 518.133 1233.18 504.272 1226.13ZM540.651 1361.75C541.413 1368.83 542.553 1379.56 542.006 1393.34V1393.34C541.845 1397.3 541.551 1401.07 541.166 1404.63C542.557 1401.5 543.933 1398.2 545.257 1394.74C553.019 1374.07 554.344 1362.09 555.417 1352.38V1352.38L555.611 1350.65C556.585 1342.05 557.717 1334.58 563.795 1324.56C572.52 1309.98 583.524 1302.35 595.583 1294.76L596.193 1294.38H596.252C605.632 1288.53 616.7 1281.46 627.555 1270.2C602.328 1264.38 578.081 1257.04 554.898 1248.29C545.044 1262.07 538.898 1275.74 536.047 1290.1L536.045 1290.11L536.042 1290.12C535.151 1294.41 534.891 1297.59 534.562 1300.82C533.45 1312.44 534.135 1320.47 535.576 1329.76C535.951 1332 536.376 1334.23 536.813 1336.64H536.812C538.061 1343.32 539.485 1350.98 540.635 1361L540.651 1361.14V1361.75Z" fill="#C1B265" stroke="#C1B265" stroke-width="5"/>
<path d="M639.895 1264.9C642.006 1265.23 644.12 1265.6 646.218 1265.98L652.44 1267.13L652.443 1267.14L657.967 1268.15C663.04 1269.06 668.134 1269.91 673.197 1270.44L674.577 1270.58L674.617 1270.58L674.656 1270.59L692.225 1272.8L718.518 1274.8L744.939 1275.5L765.057 1275.02L765.087 1275.02H765.117C770.074 1274.91 775.132 1274.8 780.013 1274.32L782.481 1274.05L786.833 1273.58L785.029 1277.57L783.999 1279.85L783.994 1279.86L783.989 1279.87C775.95 1297.22 765.789 1308.48 757.051 1318.25L757.048 1318.25C746.996 1329.45 738.761 1338.71 734.594 1353.97L734.59 1353.99C731.707 1364.29 732.707 1370.5 734.216 1379.71L734.528 1381.63C736.101 1391.36 737.775 1403.73 735.921 1425.26L735.92 1425.27V1425.27C734.563 1440.04 731.808 1452.71 729.039 1462.6V1465.25H728.309C727.389 1468.37 726.482 1471.2 725.651 1473.65L725.649 1473.66L725.646 1473.67L724.235 1477.73L721.763 1484.87L719.489 1477.67L718.188 1473.54L718.186 1473.54C715.347 1464.49 711.809 1455.59 707.784 1447.05L707.781 1447.05C702.253 1435.24 695.87 1424.19 688.85 1414.17V1414.17C676.731 1397.01 665.639 1385.91 655.265 1375.86V1375.86C644.628 1365.83 636.286 1356.19 631.044 1342.55L631.043 1342.54C625.792 1328.85 622.837 1304.82 636.894 1266.93L637.01 1266.62V1264.45L639.895 1264.9ZM642.903 1273.32C633.721 1299.72 632.155 1322.76 638.073 1338.93L638.368 1339.72L638.371 1339.73L638.814 1340.85C643.173 1351.65 649.877 1359.74 658.779 1368.37L660.652 1370.16L660.668 1370.18C670.908 1380.05 681.991 1391.17 694.09 1407.96L695.265 1409.6L695.269 1409.61L695.272 1409.61C702.576 1420.05 709.158 1431.51 714.857 1443.67L715.521 1445.1C717.54 1449.47 719.412 1453.91 721.141 1458.41C720.985 1450.25 720.057 1438.95 716.946 1425.95L716.945 1425.95C714.06 1413.82 710.484 1404.85 707.832 1398.19L707.827 1398.18L707.823 1398.17L707.171 1396.49V1396.48C703.63 1387.42 700.307 1380.61 697.375 1374.53V1374.53C692.039 1363.53 687.684 1354.66 684.69 1338.58L684.689 1338.57C684.089 1335.3 683.473 1331.84 683.083 1327.15V1327.14C681.876 1311.98 684.087 1296.63 689.647 1280.38L673.704 1278.37H673.703C666.008 1277.59 658.331 1276.17 650.994 1274.82L650.986 1274.82L650.979 1274.82C648.244 1274.3 645.579 1273.78 642.903 1273.32ZM697.749 1281.13C692.22 1296.63 689.969 1311.06 690.845 1325.17L690.943 1326.59L690.944 1326.6L691.006 1327.38C691.244 1330.21 691.597 1332.55 691.988 1334.78L692.427 1337.18L692.428 1337.18L692.689 1338.56C695.438 1352.65 699.395 1360.73 704.421 1371.09L705.562 1373.43C708.074 1378.58 710.846 1384.47 713.803 1391.85L714.488 1393.58L714.492 1393.59L715.141 1395.27L716.186 1397.93C718.635 1404.21 721.699 1412.4 724.291 1422.96L724.577 1424.14L724.578 1424.14L725.027 1426.09C725.733 1429.24 726.317 1432.28 726.804 1435.21C727.3 1431.82 727.731 1428.28 728.065 1424.6C729.939 1402.59 728.015 1390.66 726.407 1381.02L726.406 1381.01C724.877 1371.67 723.597 1363.94 726.95 1351.95L727.176 1351.14C731.984 1334.43 741.505 1323.84 751.156 1313.07L751.158 1313.07L754.391 1309.45C761.168 1301.82 767.873 1293.72 773.813 1282.65C770.928 1282.77 768.067 1282.82 765.29 1282.89H765.286L745.048 1283.38L744.985 1283.38L744.922 1283.38L718.227 1282.67L718.166 1282.67L718.104 1282.67L697.749 1281.13Z" fill="#C1B265" stroke="#C1B265" stroke-width="5"/>
<path d="M927.213 1247.58L926.835 1249.9L926.836 1249.9C923.842 1268.87 917.119 1282.46 911.364 1294.19L911.361 1294.19C904.731 1307.62 899.255 1318.74 899.411 1334.73V1334.77C899.36 1345.41 902.023 1351.11 905.961 1359.64L906.775 1361.4C910.771 1370.05 915.579 1381.15 919.479 1401.01L919.879 1403.09L919.881 1403.11L920.127 1404.49C922.595 1418.57 923.271 1431.01 923.282 1440.91L924.363 1444.14H923.24C923.177 1447.15 923.075 1449.9 922.899 1452.35L922.629 1456.67L922.152 1464.28L918.03 1457.86L915.696 1454.23C907.83 1441.97 893.777 1423.41 871.495 1404.94L871.479 1404.92C857.508 1393.15 845.583 1386.41 834.964 1380.39V1380.39C832.892 1379.22 830.803 1378.07 828.779 1376.87L828.307 1376.6L828.3 1376.6L828.292 1376.59C816.342 1369.83 805.508 1363.74 796.631 1351.32L796.222 1350.75C787.621 1338.7 778.591 1316.33 781.997 1276.75L782.193 1274.47H782.205V1274.06L784.571 1273.93C808.619 1272.64 832.055 1268.61 854.104 1264.49C858.073 1263.51 862.146 1262.59 866.19 1261.67L866.197 1261.67L871.685 1260.43C877.184 1259.17 882.697 1257.82 888.02 1256.14L888.06 1256.12L888.101 1256.11C889.809 1255.64 891.488 1255.16 893.163 1254.68V1254.63L894.977 1254.11L900.071 1252.67C901.745 1252.19 903.403 1251.7 905.066 1251.2L923.944 1244.81L927.879 1243.48L927.213 1247.58ZM923.268 1440.86V1440.86C923.267 1440.86 923.267 1440.86 923.267 1440.86L923.266 1440.86L923.268 1440.86ZM836.462 1275.58C821.304 1278.17 805.587 1280.41 789.486 1281.49C787.099 1317.94 796.315 1337.26 802.356 1345.86L802.941 1346.67L802.961 1346.7C810.787 1357.64 820.397 1363.1 832.149 1369.74L832.637 1370.01L832.674 1370.03C834.723 1371.22 836.721 1372.35 838.833 1373.54L842.963 1375.88C852.752 1381.45 863.758 1388.12 876.473 1398.81L876.478 1398.81C893.429 1412.87 905.802 1427.01 914.417 1438.59C912.052 1430.79 908.112 1420.25 901.667 1408.56V1408.56C895.251 1396.96 888.944 1388.73 884.724 1383.21V1383.21L884.355 1382.73L884.344 1382.72C878.816 1375.47 873.991 1370.06 869.695 1365.16V1365.16C861.369 1355.69 854.561 1348.05 847.19 1332.98L846.634 1331.84C845.331 1329.15 843.999 1326.23 842.584 1322.38L842.581 1322.37C837.39 1308.05 835.43 1292.7 836.462 1275.58ZM907.484 1258.72L907.442 1258.73L907.4 1258.75C905.68 1259.26 903.967 1259.76 902.261 1260.24L897.164 1261.69C896.025 1262.01 894.885 1262.34 893.745 1262.66C892.613 1262.99 891.48 1263.31 890.348 1263.63C882.923 1265.94 875.248 1267.69 867.938 1269.32L867.937 1269.32C863.829 1270.25 859.828 1271.1 855.862 1272.12L855.783 1272.14L855.702 1272.16C851.981 1272.85 848.208 1273.55 844.393 1274.22C843.177 1290.58 844.888 1305.08 849.518 1318.4L849.993 1319.74V1319.74L850.543 1321.21C851.82 1324.52 853.06 1327.1 854.292 1329.66H854.291C861.188 1343.76 867.456 1350.82 875.617 1360.07H875.616C879.959 1364.95 884.942 1370.59 890.637 1378.04L891.017 1378.53L891.025 1378.54L891.035 1378.55C895.191 1384.02 901.523 1392.25 908.019 1403.77L908.647 1404.89L908.652 1404.9L909.614 1406.68C911.159 1409.57 912.56 1412.38 913.832 1415.1C913.4 1411.72 912.863 1408.22 912.195 1404.61V1404.6C908.125 1382.92 903.008 1371.9 898.876 1362.99L898.874 1362.99C894.896 1354.38 891.539 1347.23 891.59 1334.83L891.587 1333.99C891.621 1316.41 897.927 1303.69 904.328 1290.73C909.534 1280.17 914.796 1269.52 917.889 1255.17L907.484 1258.72Z" fill="#C1B265" stroke="#C1B265" stroke-width="5"/>
<path d="M1055.99 1180L1056.26 1182.38L1056.45 1184.16C1058.3 1202.38 1055.62 1216.78 1053.3 1229.3C1050.63 1243.79 1048.45 1255.8 1052.56 1270.68L1052.76 1271.4L1052.76 1271.4L1052.76 1271.41C1055.65 1281.71 1059.73 1286.52 1065.81 1293.57H1065.81C1072.25 1301.01 1080.27 1310.37 1090.06 1329.68L1091.01 1331.58L1091.01 1331.59L1091.63 1332.84C1097.87 1345.71 1101.96 1357.57 1104.62 1367.17C1104.63 1367.18 1104.64 1367.19 1104.64 1367.21C1104.67 1367.26 1104.69 1367.3 1104.71 1367.33C1104.72 1367.35 1104.72 1367.36 1104.73 1367.37C1104.73 1367.38 1104.73 1367.38 1104.73 1367.38C1104.73 1367.38 1104.73 1367.38 1104.73 1367.38L1104.73 1367.38L1106.55 1371H1105.62C1106.3 1373.61 1106.86 1376.02 1107.33 1378.17V1378.17L1108.25 1382.41L1109.85 1389.75L1104.17 1384.83L1100.92 1382L1100.91 1382L1100.9 1381.99C1093.77 1375.72 1086.16 1369.94 1078.29 1364.79L1078.27 1364.78C1067.7 1357.75 1056.5 1351.59 1045.03 1346.55V1346.55C1025.26 1338.06 1009.37 1334.09 996.436 1331.28L996.418 1331.28L996.399 1331.28C983.501 1328.28 970.553 1324.77 958.427 1315.35V1315.35C948.817 1308.03 932.154 1289.72 924.136 1247.6L923.984 1246.8L923.322 1245.15L923.647 1245.02L923.571 1244.63H924.696L925.71 1244.25C945.549 1236.77 968.586 1227.59 989.973 1216.06L990.031 1216.03L990.091 1216C995.172 1213.6 1000.11 1210.84 1005 1208.02L1009.87 1205.19C1013.49 1203.03 1017.12 1200.92 1020.82 1198.91L1042.98 1184.72L1052.05 1178.25L1055.51 1175.78L1055.99 1180ZM976.278 1231.77C961.405 1238.8 946.382 1244.86 932.723 1250.06C940.303 1286.2 954.392 1302.1 962.487 1308.56L963.266 1309.16L963.272 1309.17L963.28 1309.17C974.052 1317.5 985.743 1320.77 998.178 1323.64C1010.98 1326.39 1026.75 1330.33 1046.24 1338.54L1048.14 1339.35L1048.15 1339.35L1048.17 1339.36C1060.07 1344.63 1071.65 1350.99 1082.61 1358.28L1089.5 1362.87H1089.28C1091.4 1364.37 1093.5 1365.93 1095.58 1367.51C1091.19 1360.64 1084.52 1351.5 1075.11 1341.99L1075.11 1341.99C1066.51 1333.29 1058.88 1327.52 1053.24 1323.24V1323.24L1051.45 1321.88L1051.44 1321.88C1043.72 1315.97 1037.34 1311.9 1031.69 1308.26V1308.26C1021.45 1301.67 1013.13 1296.32 1002.21 1284.18L1002.21 1284.17L1002.2 1284.16C1000.07 1281.76 997.674 1279.03 994.887 1275.18L994.882 1275.18C985.968 1262.8 979.903 1248.49 976.278 1231.77ZM1047.47 1191.16L1047.42 1191.19L1047.37 1191.23L1024.96 1205.61L1024.88 1205.65L1024.81 1205.69C1021.1 1207.74 1017.56 1209.83 1013.91 1211.96L1013.91 1211.96C1007.41 1215.74 1000.65 1219.71 993.591 1223.07L993.578 1223.05C990.257 1224.8 986.902 1226.47 983.563 1228.12C986.933 1244.72 992.767 1258.59 1001.32 1270.5L1002.27 1271.78C1004.46 1274.67 1006.38 1276.87 1008.17 1278.9H1008.17C1018.29 1290.23 1026.03 1295.18 1036.02 1301.61L1038.2 1303.01C1043.39 1306.34 1049.26 1310.24 1056.26 1315.56L1058.05 1316.92H1058.05C1063.64 1321.14 1071.26 1326.95 1079.93 1335.57L1080.78 1336.41L1082.18 1337.85C1084.41 1340.14 1086.47 1342.41 1088.4 1344.63C1087.06 1341.49 1085.6 1338.28 1083.98 1335V1334.99C1074.18 1315.23 1066.29 1306.02 1059.91 1298.62L1059.9 1298.62C1053.74 1291.41 1048.59 1285.47 1045.24 1273.47V1273.46C1040.29 1256.4 1042.97 1242.24 1045.62 1227.85L1045.62 1227.84L1046.06 1225.46C1048.07 1214.68 1049.85 1203.62 1049.07 1190.01L1047.47 1191.16Z" fill="#C1B265" stroke="#C1B265" stroke-width="5"/>
<path d="M1162.1 1080.14L1163.02 1082.37L1163.03 1082.38L1163.03 1082.39C1169.96 1099.52 1171.4 1114.49 1172.64 1127.35L1172.97 1130.55L1172.97 1130.58L1172.97 1130.6C1174.02 1143.83 1175.5 1155.43 1182.79 1167.84L1183.52 1169.04L1183.53 1169.06C1189.09 1178.22 1194.28 1181.72 1202.04 1186.89H1202.04C1210.23 1192.31 1220.38 1199.12 1235.04 1215.12L1236.47 1216.7L1236.48 1216.71L1236.49 1216.71C1246.17 1227.62 1253.48 1238.12 1258.82 1246.8H1258.94L1259.35 1247.5L1261.05 1249.19L1260.61 1249.64C1262.24 1252.44 1263.72 1255.03 1264.94 1257.37H1264.94L1266.95 1261.22L1270.45 1267.94L1263.64 1264.63L1259.73 1262.73C1245.96 1256.03 1223.75 1247.29 1196.35 1243.59L1196.33 1243.58L1196.3 1243.58C1177.46 1240.58 1163.45 1241.17 1150.88 1241.65H1150.86C1148.95 1241.71 1147.15 1241.76 1145.34 1241.87L1145.27 1241.87H1143.8C1130.37 1242.2 1118.14 1242.56 1104.48 1236.8V1236.8C1085.18 1228.88 1067.02 1208.78 1053.05 1180.75L1052.57 1179.77L1051.63 1178.53L1053.75 1177.04L1055.45 1175.84C1091.3 1150.4 1125.23 1118.64 1156.35 1081.34L1157.86 1079.51L1160.51 1076.3L1162.1 1080.14ZM1099.02 1151.44C1086.9 1161.98 1074.55 1171.85 1061.93 1180.89C1078.91 1213.2 1096.91 1224.96 1106.54 1229.18L1107.46 1229.57L1107.48 1229.58L1108.6 1230.03C1120.19 1234.59 1130.8 1234.37 1143.61 1234L1143.64 1234H1144.99C1145.88 1233.97 1146.78 1233.93 1147.7 1233.89C1148.62 1233.85 1149.57 1233.81 1150.54 1233.78L1154.26 1233.65C1158.05 1233.52 1162.07 1233.4 1166.3 1233.4C1175.26 1233.4 1185.32 1233.94 1197.26 1235.79H1197.29L1197.46 1235.81C1218.61 1238.68 1236.77 1244.45 1250.58 1250.06C1242.78 1243.05 1233.92 1236.68 1224.1 1231.07L1224.1 1231.07C1212.53 1224.46 1202.82 1220.67 1196.28 1218.12L1195.84 1217.98L1195.78 1217.96L1195.72 1217.93C1186.87 1214.45 1179.79 1212.3 1173.44 1210.35V1210.34C1161.66 1206.8 1152.17 1203.9 1138.1 1194.87L1138.08 1194.86L1138.06 1194.84C1135.34 1193.03 1132.3 1191.11 1128.61 1188.15L1127.43 1187.19C1116.02 1177.81 1106.71 1166.04 1099.02 1151.44ZM1158.04 1091.53C1141.1 1111.38 1123.33 1129.6 1104.94 1146.14C1112.62 1161.16 1121.95 1172.9 1133.4 1182.07C1136.82 1184.75 1139.53 1186.47 1142.26 1188.27H1142.26C1155.41 1196.7 1164.2 1199.34 1175.66 1202.85L1180.65 1204.38C1185.81 1205.99 1191.62 1207.89 1198.46 1210.6L1198.89 1210.74L1198.95 1210.76L1199 1210.78C1205.65 1213.34 1215.83 1217.3 1227.94 1224.23H1227.94C1231.26 1226.13 1234.48 1228.12 1237.59 1230.19C1235.43 1227.48 1233.13 1224.73 1230.64 1221.94L1229.27 1220.43C1215.23 1205.08 1205.54 1198.63 1197.69 1193.38V1193.38C1189.82 1188.13 1183.29 1183.81 1176.81 1173.12V1173.12C1167.92 1158.65 1166.26 1145.4 1165.11 1131.22H1165.11L1164.79 1128.07L1164.79 1128.06L1164.79 1128.05C1163.71 1116.52 1162.55 1104.87 1158.04 1091.53Z" fill="#C1B265" stroke="#C1B265" stroke-width="5"/>
<path d="M1237.17 955.502L1238.64 957.347L1238.64 957.355L1238.65 957.363C1249.72 971.554 1255.13 984.926 1259.57 996.614L1260.45 998.929L1260.45 998.933L1261.43 1001.53C1266.22 1014.17 1270.74 1024.83 1281.34 1034.8L1281.89 1035.3L1281.9 1035.31L1281.91 1035.33C1288.66 1041.72 1294.1 1044.03 1301.31 1046.46L1304.52 1047.52L1304.52 1047.52L1306.37 1048.13C1315.46 1051.13 1326.76 1055.22 1343.97 1065.91L1345.77 1067.04L1345.78 1067.05L1346.96 1067.81C1357.02 1074.34 1365.4 1081.05 1372.1 1087.04V1086.85L1375.96 1090.5C1375.98 1090.51 1375.99 1090.51 1376 1090.52C1376.03 1090.54 1376.05 1090.55 1376.07 1090.57C1376.07 1090.57 1376.08 1090.58 1376.09 1090.58L1376.1 1090.59L1376.1 1090.59L1376.1 1090.59C1376.1 1090.59 1376.1 1090.59 1376.09 1090.61H1376.09L1376.1 1090.59L1377.1 1091.34V1091.57C1379.68 1094.03 1381.95 1096.31 1383.87 1098.38L1386.8 1101.53L1391.91 1107.01L1384.53 1105.69L1380.29 1104.93V1104.93C1370.91 1103.27 1361.37 1102.25 1351.82 1101.88V1101.87C1340.14 1101.45 1327.41 1101.98 1314.03 1103.6L1314.02 1103.59C1304.32 1104.83 1295.27 1106.6 1286.35 1109.11L1286.34 1109.11L1286.33 1109.11C1279.05 1111.11 1271.87 1113.27 1264.54 1115.69L1264.53 1115.7L1264.51 1115.7C1257.93 1117.81 1251.54 1119.86 1245.03 1121.15L1245 1121.15L1244.98 1121.16C1240.51 1121.94 1236.3 1122.33 1232.12 1122.33C1229.36 1122.33 1226.61 1122.16 1223.85 1121.83V1121.83C1209.25 1120.12 1186.48 1111.67 1159.4 1081.68L1158.77 1080.98L1157.4 1079.95L1159.06 1077.93C1175.38 1058.05 1189.31 1036.84 1199.6 1020.54L1212.78 997.682L1224.76 974.211L1232.93 956.032L1234.62 952.285L1237.17 955.502ZM1195.61 1041.01C1187.63 1053.04 1178.34 1066.37 1167.93 1079.34C1192.98 1105.97 1213.36 1112.38 1223.71 1113.81L1224.7 1113.93L1224.72 1113.93L1224.73 1113.93L1225.88 1114.07C1231.59 1114.68 1237.2 1114.44 1243.56 1113.36C1249.51 1112.19 1255.54 1110.29 1262.05 1108.18L1264.85 1107.27C1270.43 1105.48 1275.93 1103.83 1281.48 1102.29L1284.26 1101.52C1293.55 1098.94 1303 1097.07 1313.09 1095.81H1313.1L1313.1 1095.81C1326.89 1094.17 1339.99 1093.56 1352.13 1094.06L1352.14 1094.12C1357.44 1094.33 1362.77 1094.74 1368.07 1095.34C1360.73 1091.71 1350.31 1087.35 1337.32 1084.11L1336.11 1083.81C1323.92 1080.81 1314.09 1079.88 1307.35 1079.14H1306.77L1306.65 1079.13C1297.63 1078.27 1290.32 1078.06 1283.88 1077.89H1283.86C1271.18 1077.51 1260.92 1077.24 1244.9 1072.36L1244.89 1072.36C1241.88 1071.42 1238.43 1070.31 1234.03 1068.48L1234.02 1068.47L1234.01 1068.47C1220.02 1062.49 1207.4 1053.47 1195.61 1041.01ZM1231.85 977.51L1231.83 977.564L1231.8 977.617L1219.7 1001.33L1219.67 1001.39L1219.64 1001.44L1206.34 1024.5L1205.62 1025.75H1205.5C1203.78 1028.46 1201.95 1031.32 1200.05 1034.28C1211.14 1046.35 1222.89 1054.99 1235.81 1060.7L1237.11 1061.26L1237.12 1061.27L1237.13 1061.27C1241.1 1063 1244.27 1063.93 1247.23 1064.86L1248.62 1065.28C1262.79 1069.45 1272.12 1069.71 1284.11 1070.02H1284.11C1290.6 1070.18 1298.02 1070.4 1307.28 1071.38H1307.94L1308.06 1071.39C1314.85 1072.07 1325.19 1073.07 1338.04 1076.19L1339.29 1076.5L1339.29 1076.5L1341.25 1077C1344.46 1077.85 1347.53 1078.76 1350.42 1079.7C1347.63 1077.68 1344.66 1075.66 1341.52 1073.65V1073.65C1322.94 1061.82 1311.38 1058.04 1302.04 1054.98V1054.98C1293.03 1052.03 1285.53 1049.56 1276.48 1041.08V1041.08C1263.31 1028.97 1258.26 1015.42 1253.06 1001.73L1253.06 1001.72C1248.9 990.689 1244.69 979.575 1236.36 967.514L1231.85 977.51Z" fill="#C1B265" stroke="#C1B265" stroke-width="5"/>
<path d="M1275.54 815.27L1277.53 816.722L1278.91 817.728C1285.3 822.452 1290.84 827.599 1296.24 833.705L1297.39 835.028L1297.39 835.03L1298.2 835.979C1301.14 839.448 1303.8 842.859 1306.33 846.197L1309.05 849.81L1311.5 853.064H1311.49C1319.59 863.737 1326.38 872.617 1339.01 879.361L1340.25 880.008L1340.26 880.014L1340.28 880.021C1349.74 884.959 1356.05 885.221 1365.37 885.599H1365.37C1375.21 885.971 1387.44 886.509 1408.27 892.534L1410.32 893.135L1410.32 893.137L1410.33 893.139C1424.1 897.342 1435.65 902.401 1444.66 907.018L1444.78 906.896L1446.16 907.616L1447.64 907.913V908.396C1450.7 910.021 1453.42 911.56 1455.76 912.977L1459.45 915.201L1465.88 919.073L1458.42 919.829L1454.13 920.263L1454.12 920.264C1445.02 921.174 1435.58 922.782 1426.03 925.089L1426.02 925.092L1426.01 925.094C1413.62 927.991 1401.5 931.96 1389.98 936.945L1389.95 936.955C1385.25 938.93 1380.71 941.123 1376.42 943.375L1376.41 943.381L1376.4 943.387C1372.09 945.592 1368.17 947.743 1364.62 949.785L1364.62 949.784C1357.77 953.745 1352.1 957.652 1346.49 961.46L1346.48 961.466L1346.47 961.472L1345.66 962.015L1345.66 962.017C1334.62 969.36 1323.16 976.418 1308.1 978.844L1308.1 978.843C1305.47 979.298 1302.25 979.635 1298.37 979.635C1284.71 979.635 1263.42 975.506 1235.18 957.653L1234.49 957.213L1232.81 956.542L1233.77 954.208C1241.74 934.855 1250.75 911.924 1257 888.06L1257.01 888.004L1257.03 887.948C1259.38 880.409 1261.15 872.586 1262.89 864.917C1263.7 861.252 1264.51 857.547 1265.44 853.837C1266.19 850.432 1266.83 846.854 1267.42 843.35L1267.42 843.347L1268 839.995C1268.2 838.872 1268.41 837.743 1268.63 836.614L1269.21 833.197L1269.22 833.175L1269.22 833.153C1270.08 828.621 1270.88 824.044 1271.36 819.491L1271.57 817.067L1271.97 812.662L1275.54 815.27ZM1259.1 908.876C1254.05 924.663 1248.23 939.718 1242.73 953.16C1275.4 972.882 1297.01 972.845 1306.8 971.197L1306.82 971.193C1320.24 969.061 1330.16 962.992 1341.26 955.577L1341.26 955.575L1342.08 955.032C1347.65 951.242 1353.52 947.24 1360.65 943.072C1364.28 940.924 1368.39 938.733 1372.74 936.506L1374.4 935.642C1377.77 933.914 1381.33 932.201 1384.98 930.595L1386.81 929.801C1398.17 924.901 1410.07 920.947 1422.19 917.979V917.928L1424.09 917.463C1429.35 916.183 1434.61 915.121 1439.8 914.264C1431.81 912.75 1420.55 911.393 1407.19 911.81L1407.19 911.811C1394.73 912.239 1385.15 913.842 1378.08 915.084L1378.07 915.083L1376.3 915.406L1376.29 915.408L1376.28 915.41C1366.72 917.075 1359.36 918.901 1352.88 920.576L1352.87 920.579L1352.86 920.581C1341.77 923.353 1332.61 925.702 1318.07 925.702H1315.16L1315.12 925.701C1311.36 925.592 1308.01 925.481 1303.54 924.923L1303.53 924.921C1288.39 922.93 1273.78 917.636 1259.1 908.876ZM1278.27 827.132C1277.86 829.681 1277.41 832.187 1276.96 834.62L1276.37 838.06L1276.36 838.088L1276.35 838.115C1275.93 840.309 1275.55 842.454 1275.17 844.672L1275.17 844.673C1274.57 848.208 1273.92 851.938 1273.14 855.571L1273.14 855.599L1273.13 855.626C1272.26 859.318 1271.4 862.991 1270.59 866.66L1270.59 866.672C1268.86 874.357 1267.04 882.439 1264.56 890.263L1263.8 892.682L1263.74 892.661C1262.95 895.492 1262.13 898.299 1261.28 901.097C1275.7 909.978 1289.83 915.203 1304.39 917.087H1304.39C1308.48 917.612 1311.52 917.718 1315.19 917.826H1315.19C1328.51 918.105 1336.99 916.409 1346.61 914.025L1350.82 912.965C1357.39 911.282 1364.95 909.365 1374.81 907.666L1376.6 907.34L1376.62 907.337L1376.64 907.334C1383.79 906.141 1393.82 904.377 1406.81 903.991L1408.81 903.942C1412.02 903.883 1415.11 903.921 1418.07 904.034C1414.85 902.861 1411.48 901.72 1407.96 900.639L1406.01 900.062C1386.06 894.29 1374.42 893.831 1364.95 893.415V893.416C1355.56 893.034 1347.66 892.699 1336.64 886.964L1335.93 886.603C1321.23 878.979 1313.61 868.919 1305.17 857.754L1305.16 857.747L1302.72 854.491L1302.72 854.487C1299.18 849.755 1295.6 844.945 1291.44 840.142L1291.43 840.133L1291.42 840.124C1287.24 835.214 1282.97 830.982 1278.27 827.132Z" fill="#C1B265" stroke="#C1B265" stroke-width="5"/>
<path d="M1275.01 669.482L1277.28 670.348L1278.84 670.949C1286.09 673.802 1292.84 677.272 1299.85 681.673L1301.35 682.63L1301.36 682.634L1301.37 682.639C1305.31 685.214 1308.82 687.849 1312.13 690.421L1315.38 692.966L1315.39 692.973L1317.32 694.518C1317.63 694.766 1317.94 695.01 1318.25 695.252L1319.19 695.971L1319.21 695.988L1319.23 696.007C1329.32 703.95 1339.31 711.035 1353.34 714.268L1354.71 714.568L1354.72 714.57L1355.68 714.768C1365.5 716.69 1371.55 715.263 1380.39 713.224L1382.28 712.786C1391.91 710.575 1404.23 708.079 1425.76 708.439H1425.77L1427.17 708.475C1441.39 708.885 1453.76 710.725 1463.46 712.779H1466.2V713.395C1468.36 713.892 1470.38 714.374 1472.25 714.856L1472.31 714.683L1474.61 715.31L1478.79 716.448L1486.07 718.435L1479.04 721.188L1475.03 722.762L1475.02 722.765C1466.18 726.194 1457.44 730.323 1449.12 734.937L1449.11 734.94C1439.11 740.449 1428.86 747.366 1417.77 756.037L1417.77 756.038C1403.38 767.376 1394.4 777.687 1386.33 786.944L1386.33 786.945C1384.8 788.744 1383.28 790.489 1381.75 792.183L1381.75 792.184L1381.37 792.61L1381.37 792.611C1372.35 802.987 1364.21 812.41 1350.26 818.578L1350.26 818.579C1342.86 821.992 1332.25 824.94 1317.63 824.94C1305.86 824.94 1291.51 823.052 1274.27 817.946L1273.52 817.724H1271.59L1272.03 814.849C1275.47 792.146 1276.28 768.762 1276.82 744.692C1276.23 720.665 1275.47 697.284 1272.03 674.581L1272.03 674.58L1271.65 672.212L1270.97 667.943L1275.01 669.482ZM1459.52 721.026C1451.4 721.726 1440.25 723.421 1427.54 727.379L1427.54 727.381C1414.87 731.282 1405.52 735.823 1399.24 738.854L1399.2 738.871L1399.17 738.887L1398.74 739.077C1390.59 742.994 1384.26 746.64 1378.61 749.847L1378.6 749.846C1367.61 756.107 1358.74 761.183 1342.51 765.393L1342.5 765.396C1339.28 766.214 1335.93 767.053 1331.2 767.777L1331.18 767.778L1331.17 767.78C1326.18 768.502 1321.12 768.891 1316 768.891C1305.68 768.891 1295.11 767.354 1284.05 764.349C1283.51 780.337 1282.52 796.074 1280.42 811.611C1316.81 821.564 1337.81 815.747 1346.97 811.541L1346.99 811.534L1347 811.527C1359.29 806.084 1366.56 797.774 1375.43 787.592L1375.43 787.59L1375.81 787.156L1375.83 787.14L1375.84 787.124C1377.34 785.462 1378.84 783.745 1380.35 781.974L1380.36 781.964L1380.37 781.953C1388.52 772.542 1397.93 761.815 1412.88 749.997L1412.89 749.99L1415.01 748.341C1425.58 740.195 1435.49 733.589 1445.29 728.176L1449 726.125V726.259C1452.45 724.417 1455.96 722.67 1459.52 721.026ZM1280.66 680.291C1283.38 701.36 1284.09 722.869 1284.59 744.684L1284.59 744.743L1284.59 744.802C1284.5 748.651 1284.4 752.514 1284.28 756.346C1300.51 761.014 1315.5 762.201 1329.94 760.067C1334.26 759.383 1337.35 758.599 1340.5 757.838C1355.68 753.91 1363.96 749.167 1374.67 743.059C1380.32 739.798 1386.84 736.072 1395.28 732.017L1395.31 732.001L1395.34 731.986L1395.79 731.788C1402.22 728.684 1411.95 724.013 1425.19 719.892L1425.2 719.89L1427.12 719.308C1430.25 718.384 1433.27 717.586 1436.18 716.896C1432.79 716.632 1429.26 716.446 1425.61 716.368V716.367C1403.55 715.939 1391.73 718.715 1382.18 720.968L1382.17 720.971C1372.94 723.1 1365.21 724.899 1353.09 722.338V722.337C1337.58 719.117 1326.6 711.729 1316.39 703.854L1314.36 702.272C1313.1 701.291 1311.79 700.255 1310.49 699.226L1310.49 699.223C1306.26 695.86 1302 692.507 1297.06 689.268V689.269C1291.53 685.665 1286.17 682.758 1280.66 680.291Z" fill="#C1B265" stroke="#C1B265" stroke-width="5"/>
<path d="M1431.74 519.943C1434.69 519.772 1437.42 519.672 1439.82 519.672H1451.51L1445.62 524.16L1442.21 526.765L1442.2 526.768C1429.75 536.215 1411.62 552.152 1396.02 574.289L1396.01 574.298L1396.01 574.308C1383.45 591.796 1376.86 605.78 1371.14 618.731L1371.12 618.777L1371.1 618.823C1365.15 630.929 1359.37 642.784 1347.75 652.66L1347.75 652.661C1338.79 660.358 1318.17 672.418 1277.97 672.418H1271.84V672.201H1271.51L1271.3 669.933C1270.88 665.395 1270.04 660.844 1269.22 656.31V656.309L1268.57 652.792L1268.56 652.781L1268.56 652.77C1268.37 651.681 1268.18 650.58 1267.99 649.481C1267.8 648.382 1267.61 647.286 1267.42 646.204L1267.42 646.194L1267.42 646.184C1266.83 642.626 1266.18 639.035 1265.44 635.509C1264.57 631.889 1263.7 628.204 1262.89 624.514V624.515C1261.15 616.845 1259.38 609.024 1257.03 601.542L1257.01 601.487L1257 601.431C1250.69 577.561 1241.74 554.626 1233.72 535.227L1233.71 535.199L1232.84 533.029L1231.32 529.233L1235.39 529.612L1237.73 529.829H1237.72C1255.53 531.384 1268.35 536.446 1280.52 541.28H1280.52L1285.07 543.067L1285.12 543.087C1298.35 548.598 1309.28 552.566 1324.06 551.421L1324.08 551.419L1324.1 551.418C1333.67 550.817 1339.12 548.271 1346.05 544.51L1345.95 544.353L1348.33 543.041C1357.22 538.16 1368.38 532.033 1390.68 526.21L1390.69 526.207L1390.7 526.205C1405.09 522.567 1417.98 520.863 1428.27 520.188L1428.27 520.188C1428.32 520.171 1428.36 520.156 1428.4 520.145C1428.41 520.139 1428.43 520.134 1428.44 520.131C1428.44 520.129 1428.44 520.129 1428.45 520.128L1428.45 520.127L1428.45 520.126L1431.74 519.026V519.943ZM1426.97 529.104C1419.36 531.985 1409.05 536.641 1397.89 543.908L1397.89 543.91C1386.44 551.346 1378.14 558.676 1373.16 563.061L1373.16 563.065L1373.15 563.071C1365.8 569.457 1360.54 574.821 1355.88 579.589L1355.88 579.588C1347.38 588.313 1340.56 595.298 1326.15 603.559L1326.12 603.57C1323.43 605.077 1320.24 606.926 1315.83 608.88L1315.83 608.881C1301.87 615.122 1286.66 618.162 1269.58 618.263C1269.95 619.81 1270.32 621.373 1270.64 622.88H1270.65C1271.36 626.114 1272.06 629.314 1272.84 632.469L1273.18 633.818L1273.19 633.856L1273.2 633.895C1274.02 637.641 1274.68 641.374 1275.28 644.962H1275.28C1275.62 646.935 1275.9 648.76 1276.25 650.616L1276.41 651.414L1276.41 651.433L1276.41 651.451L1277.06 654.975L1277.59 657.865C1277.99 660.083 1278.37 662.357 1278.69 664.647C1316.53 664.538 1335.16 653.342 1342.81 646.802L1342.82 646.796L1343.77 645.978C1353.36 637.486 1358.25 627.535 1364.15 615.564C1369.86 602.587 1376.63 588.301 1389.25 570.533V570.43L1389.71 569.782C1401.85 552.537 1415.47 538.94 1426.97 529.104ZM1403.53 531.432C1400.04 532.121 1396.43 532.928 1392.71 533.868L1390.74 534.396C1370.68 539.855 1360.47 545.452 1352.21 550.023L1352.21 550.024C1343.9 554.617 1337.05 558.372 1324.6 559.227L1324.6 559.228C1307.99 560.466 1295.82 556.04 1282.15 550.376L1277.65 548.588L1273.37 546.902C1264.39 543.406 1255.09 540.11 1243.54 538.425C1250.92 556.6 1258.83 577.581 1264.58 599.397C1265.76 603.064 1266.77 606.76 1267.68 610.479C1284.61 610.659 1299.27 607.774 1312.65 601.82C1316.65 600.03 1319.6 598.347 1322.25 596.831C1335.67 589.143 1341.98 582.622 1350.25 574.191C1354.96 569.368 1360.34 563.826 1367.96 557.247C1373.02 552.783 1381.65 545.197 1393.58 537.444L1395.26 536.357C1398.08 534.558 1400.84 532.92 1403.53 531.432Z" fill="#C1B265" stroke="#C1B265" stroke-width="5"/>
<path d="M1360.19 343.797L1357.54 347.207L1357.54 347.208C1348.66 358.71 1335.94 378.183 1326 405.407L1326 405.418C1319.52 422.93 1317.16 436.626 1315.05 448.923L1315.05 448.933L1315.05 448.941C1314.68 450.973 1314.34 453.052 1313.97 455.047L1313.97 455.048C1312.72 462.414 1311.61 468.682 1309.83 474.809L1309.82 474.836C1307.74 481.696 1304.76 487.946 1300.71 493.905L1300.71 493.906C1292.45 506.108 1274.47 522.415 1235.36 532.739L1234.35 533.006L1232.98 533.615L1232.88 533.394L1232.23 533.567V531.942L1231.96 531.35L1224.71 515.295L1212.73 491.805L1199.55 468.961C1189.31 452.713 1175.39 431.506 1159.06 411.617L1159.06 411.616L1157.54 409.775L1154.83 406.487L1159.02 405.727L1161.41 405.292L1164.36 404.757V404.838C1181.78 402.04 1195.91 403.665 1208.21 405.105H1208.21C1223.16 406.845 1235.46 408.269 1250.52 402.746L1250.54 402.739L1250.56 402.732C1260.58 399.237 1265.08 394.808 1271.77 388.228L1271.77 388.222L1274.61 385.462C1281.51 378.81 1290.66 370.651 1308.02 360.505L1308.02 360.501L1309.23 359.803C1321.67 352.695 1333.2 347.81 1342.6 344.509C1342.62 344.498 1342.64 344.488 1342.65 344.479C1342.66 344.474 1342.67 344.47 1342.67 344.468H1342.67L1346.56 341.87V343.153C1349 342.337 1351.28 341.629 1353.35 341.052L1357.53 339.857L1364.89 337.756L1360.19 343.797ZM1343.34 353.617C1336.8 358.429 1328.2 365.662 1319.4 375.655L1319.4 375.656C1310.63 385.598 1305.02 394.359 1301.23 400.213L1301.22 400.226L1301.21 400.237L1300.9 400.704L1300.9 400.705C1295.91 408.378 1292.42 414.761 1289.27 420.464C1283.17 431.52 1278.27 440.445 1266.58 452.468L1266.58 452.471C1264.4 454.705 1261.82 457.333 1258.14 460.404L1258.13 460.407C1246.4 470.152 1232.58 477.198 1216.15 481.949L1219.69 488.109L1219.72 488.164L1219.75 488.221L1231.85 511.932L1231.88 511.986L1231.91 512.042L1237.37 524.185C1273.67 513.782 1288.63 497.945 1294.23 489.592L1294.24 489.584L1294.9 488.581C1298.17 483.564 1300.61 478.36 1302.32 472.654L1302.62 471.593C1304.08 466.264 1305.04 460.625 1306.22 453.774L1306.22 453.759L1306.22 453.744C1306.41 452.728 1306.58 451.723 1306.76 450.704C1306.94 449.689 1307.12 448.659 1307.31 447.613C1309.43 435.171 1311.9 420.881 1318.6 402.709L1319.2 401.074H1319.26C1326.69 381.14 1335.56 365.294 1343.34 353.617ZM1321.27 362.164C1318.22 363.714 1315.09 365.407 1311.9 367.261L1311.9 367.262C1292.88 378.403 1284.2 386.929 1277.23 393.798L1277.22 393.806C1270.57 400.293 1265.04 405.831 1253.68 409.915L1253.63 409.964L1253.11 410.153C1237.27 415.962 1223.63 414.811 1209.94 413.262L1207.2 412.948C1195.58 411.613 1183.85 410.269 1169.36 412.096C1183.13 429.516 1195.03 447.461 1204.26 461.977L1206.18 465.017L1206.21 465.058L1206.23 465.101L1211.95 474.991C1228.29 470.455 1241.69 463.703 1252.94 454.388L1253.55 453.871C1256.58 451.314 1258.69 449.154 1260.77 447.025C1271.7 435.773 1276.3 427.495 1282.24 416.693L1282.24 416.683L1284.74 412.21C1287.34 407.566 1290.33 402.385 1294.15 396.466L1294.16 396.45L1294.17 396.435L1294.48 395.976C1298.34 389.993 1304.18 380.907 1313.37 370.503L1313.37 370.501L1314.72 368.993C1316.94 366.554 1319.13 364.279 1321.27 362.164Z" fill="#C1B265" stroke="#C1B265" stroke-width="5"/>
<path d="M1229.18 193.121L1227.55 197.132L1227.55 197.133C1222.04 210.778 1215.01 233.036 1212.75 261.642L1212.75 261.643C1211.3 282.624 1212.85 298.231 1214.58 312.546L1214.91 315.337C1216.47 329.133 1216.53 340.759 1212.31 353.603L1212.31 353.604C1208.63 365.104 1196.91 387.006 1160.03 408.606L1159.15 409.119L1157.94 410.178L1157.75 409.942L1157.72 409.955L1157.68 409.862L1156.3 408.214C1124.69 370.333 1090.18 338.152 1053.7 312.519L1051.75 311.162L1048.29 308.758L1052.06 306.873L1054.23 305.788L1054.76 305.523H1054.84C1063.12 301.561 1071.52 298.542 1079.79 296.584L1079.79 296.582L1079.8 296.581C1086.23 295.096 1092.33 294.108 1098.13 293.187L1101.71 292.59C1114.95 290.364 1126.96 288.256 1139.41 279.399L1139.42 279.393L1140.22 278.82C1148.32 272.922 1151.46 267.513 1155.94 259.684C1160.99 250.849 1167.35 239.803 1183.39 223.268L1183.4 223.259L1184.38 222.263C1194.38 212.196 1204.08 204.47 1212.2 198.748C1212.23 198.714 1212.25 198.684 1212.27 198.661C1212.28 198.643 1212.29 198.627 1212.3 198.616C1212.31 198.611 1212.31 198.606 1212.31 198.603C1212.31 198.601 1212.32 198.599 1212.32 198.598L1212.32 198.596H1212.32V198.595C1212.32 198.595 1212.32 198.595 1212.36 198.631H1212.37L1212.32 198.595L1214.06 196.417L1214.66 197.015C1217.26 195.216 1219.69 193.64 1221.88 192.32L1225.55 190.055L1232.05 186.04L1229.18 193.121ZM1215.63 206.961C1210.6 213.39 1204.22 222.721 1198.4 234.774L1198.4 234.775C1192.63 246.751 1189.58 256.638 1187.52 263.293L1187.5 263.36L1187.48 263.428L1187.33 263.811C1184.39 273.069 1182.68 280.4 1181.11 286.957C1178.33 298.836 1176.04 308.487 1168.23 322.838L1168.22 322.852L1168.22 322.864C1166.71 325.561 1164.97 328.756 1162.23 332.721H1162.23C1153.58 345.257 1142.13 355.821 1127.46 364.889C1138.4 375.894 1149.1 387.553 1159.46 399.785C1191.84 379.936 1201.79 360.699 1204.84 351.209L1204.84 351.191C1208.85 339.018 1208.63 327.897 1206.8 313.493L1206.8 313.476C1205.05 298.927 1203.46 282.742 1204.94 261.082L1204.94 261.055C1206.69 239.137 1211.13 220.789 1215.63 206.961ZM1196.62 221.312C1194.12 223.61 1191.57 226.065 1188.99 228.701L1188.99 228.702C1173.62 244.551 1167.61 255.095 1162.72 263.58L1162.72 263.581C1158.03 271.771 1154.11 278.647 1143.92 285.766C1129.95 295.726 1116.57 297.958 1102.97 300.287L1102.97 300.289L1102.96 300.29L1099.32 300.887L1099.31 300.889C1093.54 301.815 1087.66 302.723 1081.53 304.163L1081.52 304.166C1075.67 305.509 1069.74 307.458 1063.81 309.989C1083.82 324.47 1103.21 340.93 1121.81 359.149C1136.43 350.354 1147.6 340.207 1155.89 328.198L1155.89 328.197L1156.78 326.884C1158.77 323.886 1160.18 321.342 1161.46 319.025C1168.72 305.608 1170.83 296.705 1173.59 285.092C1175.11 278.473 1176.91 270.877 1179.96 261.377L1180.05 261.025L1180.07 260.953L1180.09 260.883C1182.21 254.157 1185.35 243.797 1191.4 231.297C1193.1 227.738 1194.86 224.41 1196.62 221.312Z" fill="#C1B265" stroke="#C1B265" stroke-width="5"/>
<path d="M1062.55 82.9297L1062.12 87.2158V87.2236C1060.53 102.442 1059.73 126.02 1065.02 152.107L1065.28 153.352L1065.28 153.37L1065.29 153.388C1068.85 171.724 1073.8 184.876 1078.47 196.371L1080.45 201.206L1080.47 201.257L1080.74 201.962L1080.74 201.964L1081.68 204.404C1086.32 216.544 1090.27 227.807 1089.58 242.047L1089.58 242.056C1088.51 262.937 1075.57 286.758 1053.83 309.262L1052.66 310.476L1052.08 311.25L1050.09 309.831L1042.93 304.713L1020.75 290.521C1017.16 288.56 1013.52 286.444 1009.92 284.348V284.347C1003.43 280.585 996.914 276.74 990.191 273.538L990.135 273.511L990.08 273.481C968.585 261.899 945.547 252.723 925.761 245.242V245.241L923.597 244.431L924.106 241.622L922.85 240.237L924.585 238.664L924.592 238.658L925.838 237.552C938.688 226.306 950.828 220.566 962.294 215.148L966.581 213.087L966.609 213.073L966.638 213.061C979.705 207.175 989.98 201.947 999.355 190.28L999.365 190.269C1006.11 181.979 1007.69 175.865 1009.95 166.874L1009.95 166.865L1010.94 163.04C1013.37 153.796 1016.95 142.146 1026.56 124.405L1026.57 124.392C1033.73 111.37 1041.32 100.87 1047.8 92.8906C1047.83 92.8347 1047.85 92.787 1047.87 92.752C1047.88 92.7338 1047.88 92.7178 1047.89 92.7061C1047.89 92.7004 1047.89 92.6954 1047.9 92.6914L1047.9 92.6836L1047.9 92.6826V92.6816L1048.59 91.3008H1049.08C1051.04 88.9831 1052.87 86.8526 1054.56 84.999L1055.36 84.125L1058.22 80.9912L1063.32 75.417L1062.55 82.9297ZM1053.4 99.874C1050.28 107.42 1046.62 118.142 1044.3 131.294L1044.29 131.306C1041.89 144.568 1041.57 155.155 1041.35 162.243V162.252L1041.35 162.261C1041.02 170.948 1041.23 177.743 1041.5 183.763L1041.62 186.299L1041.62 186.309L1041.81 190.775C1042.21 201.024 1042.14 210.321 1038.79 224.487L1038.78 224.504L1038.78 224.52C1038.03 227.532 1037.19 231.117 1035.62 235.636C1030.64 250.11 1022.46 263.299 1010.88 275.846C1010.93 275.872 1010.97 275.898 1011.02 275.925L1013.88 277.574L1013.9 277.583L1013.92 277.593C1017.04 279.44 1020.2 281.28 1023.35 283.045L1024.71 283.796L1024.78 283.835L1024.84 283.879L1047.31 298.258L1047.36 298.293L1047.42 298.332L1051.01 300.906C1076.61 273.31 1081.22 251.916 1081.77 241.737C1082.39 228.396 1078.37 217.797 1073.41 204.896V204.896L1073.16 204.245L1071.15 199.336C1066.39 187.626 1061.26 173.966 1057.56 154.939L1056.98 151.962H1057.07C1053.28 132.358 1052.75 114.233 1053.4 99.874ZM1038.78 118.965C1036.97 121.88 1035.17 124.956 1033.4 128.198L1033.4 128.199C1022.85 147.641 1019.92 159.303 1017.51 168.806L1017.51 168.81C1015.16 177.978 1013.27 185.6 1005.36 195.273C994.831 208.325 982.825 214.379 969.858 220.21L965.601 222.259L962.017 223.982V223.854C953.1 228.118 944.108 232.74 934.736 240.2C953.163 247.292 974 255.866 993.641 266.444C997.077 268.093 1000.5 269.938 1003.82 271.792C1015.42 259.576 1023.4 246.864 1028.19 233.025V233.024L1028.45 232.266C1029.7 228.534 1030.39 225.589 1031.1 222.636C1034.65 207.519 1034.23 198.413 1033.69 186.644V186.629C1033.42 179.916 1033.04 172.223 1033.42 162.18C1033.64 154.834 1033.97 143.783 1036.44 129.932C1037.13 126.073 1037.92 122.412 1038.78 118.965Z" fill="#C1B265" stroke="#C1B265" stroke-width="5"/>
<path d="M872.029 22.2119L872.733 26.4326L873.043 28.1914C874.626 36.9803 876.771 45.7153 879.436 54.2627L880.114 56.3691C883.58 66.9291 888.173 77.9695 893.771 89.2686L894.6 90.8965C898.763 98.9907 903.264 106.4 908.283 113.527L910.039 115.998C913.535 120.891 916.932 125.499 920.208 129.775L921.836 131.886L921.848 131.901C926.108 137.48 929.742 142.267 932.888 147.388L933.511 148.417L933.53 148.45C937.183 154.8 939.662 161.219 941.235 168.132H941.234C944.541 182.506 944.156 206.78 925.048 242.359L924.479 243.417L924.04 244.734L921.659 243.923L905.01 238.247L888.14 233.435L888.105 233.425L888.072 233.414C880.975 231.173 873.591 229.512 866.305 227.881V227.882C862.217 226.967 858.089 226.043 854.009 225.011C832.001 220.946 808.511 216.859 784.568 215.567V215.566L783.632 215.525L779.761 221.657V210.349L780.956 210.401L781.449 209.62L781.45 209.618L782.351 208.214C786.893 201.236 792.013 194.895 798.33 188.475L798.337 188.467L798.345 188.46C802.813 183.992 807.165 180.301 811.331 176.784L813.191 175.178C813.801 174.656 814.414 174.139 815.041 173.62C825.571 164.657 834.41 156.395 840.354 142.577L840.358 142.568L840.362 142.561C844.63 132.842 844.491 126.477 844.222 117.159V117.154C843.947 106.953 843.622 94.1916 848.677 71.7207L848.679 71.7109L848.997 70.3477C852.268 56.5181 856.551 44.8621 860.498 35.7627L860.499 33.4707H861.484C862.856 30.4346 864.2 27.7029 865.373 25.3574L865.377 25.3506L865.38 25.3447L867.334 21.4922L870.776 14.7041L872.029 22.2119ZM867.686 40.9639C866.737 49.0907 866.139 60.4424 867.439 73.8184L867.563 75.0469C868.878 87.6091 871.323 97.2216 872.951 103.786L873.097 104.269L873.112 104.321L873.126 104.374C874.778 110.9 876.458 116.363 878.021 121.283L879.541 126.041L879.544 126.049L880.908 130.3C881.36 131.702 881.802 133.097 882.211 134.486L882.736 136.253C885.223 144.747 886.891 152.655 887.469 163.68L887.525 164.832V164.844L887.526 164.855C887.634 167.933 887.803 171.574 887.523 176.374V176.375C886.633 191.615 882.39 206.512 874.632 221.776C879.802 222.976 885.076 224.276 890.251 225.923L907.197 230.741L907.259 230.759L907.32 230.78L919.935 235.078C937.203 201.421 935.792 179.71 933.539 169.897L933.537 169.887L933.534 169.876C932.183 163.743 929.951 158.022 926.718 152.384L926.147 151.438C923.259 146.721 919.831 142.183 915.601 136.679V136.678C911.238 131.061 906.606 124.796 901.869 118.044L900.825 116.556C895.643 109.091 891.028 101.312 886.755 92.8174L886.751 92.8086L886.746 92.8008C880.622 80.3888 875.635 68.2261 871.956 56.6406L871.954 56.6348C870.331 51.4834 868.914 46.245 867.686 40.9639ZM859.003 63.1162C858.052 66.4083 857.149 69.8599 856.32 73.4717L856.321 73.4727C851.448 95.0003 851.773 107.142 852.041 116.961L852.09 118.718C852.317 127.423 852.189 135.032 847.548 145.702C840.905 161.175 830.594 170.654 820.14 179.585L820.141 179.586C818.957 180.609 817.682 181.716 816.408 182.769L816.407 182.768C812.275 186.247 808.087 189.749 803.957 193.932L803.958 193.933C799.313 198.663 795.379 203.273 791.863 208.157C812.504 209.677 832.619 213.076 851.592 216.543L855.639 217.286L855.712 217.3L855.784 217.317C859.541 218.244 863.213 219.083 866.896 219.918C874.749 204.899 878.954 190.53 879.819 175.919V175.916L879.901 174.328C880.056 170.74 879.958 167.939 879.817 165.179V165.167L879.816 165.155C879.34 153.604 877.549 145.792 874.828 136.771L873.522 132.646C873.082 131.265 872.635 129.869 872.174 128.432V128.431C870.166 122.299 867.928 115.313 865.636 106.369L865.486 105.869L865.469 105.809L865.453 105.748C863.769 98.9026 861.126 88.3893 859.75 74.5791V74.5781C859.342 70.5732 859.108 66.7432 859.003 63.1162Z" fill="#C1B265" stroke="#C1B265" stroke-width="5"/>
<path d="M672.647 14.9443L674.493 18.9053L674.495 18.9102L675.113 20.2314C681.558 33.8677 692.838 53.5854 710.612 72.8672L711.492 73.8154L711.518 73.8428C725.985 89.8107 738.451 98.8553 749.557 106.981L749.915 107.238L749.951 107.264L749.986 107.291C760.637 115.508 771.09 123.552 778.428 136.925L778.987 137.965C784.823 149.105 792.018 172.6 782.966 212.856L782.701 214.032V215.556L779.955 215.284C775.13 214.807 770.127 214.699 765.171 214.59H765.166L744.825 214.103L718.355 214.751L692.067 216.748L674.658 218.966L674.617 218.971L674.575 218.975C667.857 219.603 661.121 220.803 654.487 222.035V222.099L652.435 222.472C648.306 223.222 644.076 224.045 639.864 224.702L639.865 224.703L637.586 225.083L633.523 225.76L634.798 221.844L635.504 219.673C641.212 201.346 649.916 188.446 657.458 177.269L658.208 176.142L658.235 176.103C666.054 164.833 672.379 154.554 674.359 139.599L674.361 139.59L674.486 138.608C675.689 128.6 673.907 122.682 671.249 114.082L670.676 112.229C667.773 102.807 664.411 90.7695 663.381 69.1836L663.38 69.1738C662.729 54.3208 663.739 41.3949 665.139 31.1875C665.134 31.1383 665.13 31.0945 665.128 31.0586C665.121 30.9637 665.118 30.8807 665.116 30.8232C665.115 30.7936 665.114 30.7678 665.114 30.748V30.7051C665.114 30.7049 665.114 30.7045 667.614 30.7041H665.114V28.2041H665.581C666.073 25.0699 666.565 22.2275 667.062 19.7422L667.065 19.7305L667.933 15.498L669.452 8.08496L672.647 14.9443ZM671.067 57.9424C671.037 61.4045 671.092 65.0029 671.25 68.7266H671.251C672.188 88.0803 675.04 99.3035 677.646 108.067L678.741 111.689L678.742 111.692L679.74 115.009C681.997 122.642 683.624 129.747 682.08 140.604C679.879 157.431 672.752 168.796 664.68 180.469L664.675 180.476L664.671 180.481L663.935 181.531L662.596 183.518C656.479 192.617 649.999 202.713 645.094 215.767C647.061 215.415 649.026 215.058 650.971 214.682L650.982 214.68L650.993 214.678L656.57 213.66C662.194 212.652 667.964 211.703 673.744 211.124L691.228 208.905L691.29 208.897L691.354 208.893L717.941 206.885L718.006 206.88L718.07 206.878L720.67 206.815C724.214 190.396 724.431 175.423 721.332 161.087L720.974 159.536C720.136 156.048 719.267 153.339 718.414 150.639L717.956 149.271C713.214 135.355 708.269 127.94 701.842 118.43V118.429C698.092 112.885 693.822 106.481 688.951 97.8379L688.64 97.3184L688.621 97.2871L688.603 97.2549C685.122 91.0553 679.783 81.5912 674.777 68.6084V68.6094C673.403 65.0538 672.169 61.4965 671.067 57.9424ZM673.601 34.3398C675.134 44.2923 677.847 54.4418 681.68 64.6172L682.102 65.7256L682.103 65.7275L682.55 66.8809C687.176 78.6866 692.092 87.3968 695.444 93.3164L695.748 93.8223L695.767 93.8535L695.785 93.8867C700.502 102.302 704.677 108.461 708.371 114.002H708.372C714.977 123.777 720.374 131.787 725.394 146.696L725.879 148.16L725.886 148.183L725.893 148.204C726.854 151.355 727.977 154.734 728.981 159.364L729.294 160.858C732.22 175.386 731.998 190.404 728.722 206.58L744.815 206.173L744.877 206.172L744.938 206.173L765.394 206.661H765.398L768.594 206.746C771.097 206.818 773.644 206.909 776.188 207.062C783.714 170.024 776.462 149.499 771.606 140.64V140.639C765.115 128.852 756.155 121.87 745.28 113.442L744.946 113.204L744.936 113.197L744.925 113.189C733.67 104.979 720.744 95.5774 705.696 78.9922L704.096 77.2275L704.135 77.1875C690.42 62.1608 680.474 46.9142 673.601 34.3398Z" fill="#C1B265" stroke="#C1B265" stroke-width="5"/>
<path d="M478.254 61.7471L481.07 65.0508L481.973 66.0938C491.516 77.033 507.67 92.8151 531.658 107.854H531.659C540.089 113.1 547.58 116.831 554.017 119.813L556.71 121.049L556.723 121.054L556.735 121.06C562.241 123.632 567.328 125.693 572.229 127.594L577.077 129.453L577.083 129.455L577.788 129.726C589.498 134.03 602.257 139.34 613.188 150.659L613.671 151.159C623.842 161.819 635.772 182.704 637.826 222.435L637.881 223.498L638.207 224.963L637.959 225.016L637.962 225.063H637.743L635.751 225.495C588.154 235.814 543.821 251.637 503.884 272.469L503.885 272.47L501.824 273.555L498.159 275.483V268.932L498.16 268.909C498.326 259.883 499.435 251.131 501.592 242.062L501.597 242.04L501.603 242.019L501.916 240.816C503.503 234.837 505.354 229.332 507.076 224.113L508.157 220.812L509.002 218.19C510.907 212.189 512.358 206.97 513.279 201.578L513.281 201.563L513.284 201.549C514.539 194.698 514.694 188.028 513.704 181.255L513.701 181.237L513.699 181.22C512.311 170.683 508.891 165.382 503.823 157.51L502.769 155.877C497.416 147.558 490.923 136.809 484.072 116.36L484.069 116.351C479.472 102.453 476.96 89.9575 475.562 79.877L475.447 79.8203L475.323 78.8232L474.292 75.7363H474.949C474.617 72.8818 474.352 70.2473 474.184 67.8877L474.185 67.8867L473.858 63.5566L473.285 55.9189L478.254 61.7471ZM488.448 103.669C489.345 106.978 490.363 110.394 491.526 113.903L492.183 115.836C498.949 135.473 505.26 145.266 510.407 153.272L511.36 154.746C516.068 162.052 519.92 168.641 521.471 180.149H521.472C522.596 187.796 522.427 195.221 521.03 202.898L521.031 202.899C519.914 209.604 518.019 215.991 515.623 223.289L514.538 226.598L514.534 226.61C512.772 231.897 510.948 237.273 509.443 243.062L509.484 243.144L509.278 244.024C507.812 250.278 506.871 256.388 506.397 262.528C528.589 251.379 552.021 241.723 576.564 233.646C575.481 216.655 571.576 202.11 564.758 189.233L564 187.844C562.258 184.719 560.695 182.378 559.138 180.065V180.064C550.489 167.279 543.43 161.216 534.244 153.327L534.241 153.324C529.141 148.929 523.326 143.939 516.418 137.03L515.992 136.605L513.993 134.623C509.229 129.878 502.726 123.177 495.748 114.025L494.972 112.998C492.579 109.814 490.41 106.69 488.448 103.669ZM484.381 80.1328C487.66 87.2881 492.758 96.801 500.33 107.048L501.191 108.202V108.203L501.937 109.186C508.627 117.945 514.855 124.364 519.504 128.993L521.462 130.935L521.471 130.943L521.905 131.377L521.906 131.378L523.152 132.614C527.674 137.069 531.701 140.676 535.393 143.888L539.294 147.257L539.296 147.258L542.751 150.244C550.362 156.872 556.976 163.146 564.699 174.324L565.562 175.586L565.59 175.629C567.252 178.197 569.081 180.922 571.141 184.698L571.556 185.468L571.56 185.476L572.26 186.822C578.959 199.954 582.778 214.537 584.056 231.098C598.894 226.428 614.125 222.334 629.707 218.853C627.679 190.623 619.718 168.582 607.554 156.165L607.546 156.157C598.709 147.061 589.087 142.281 574.994 137.063L574.979 137.059L574.966 137.053L574.26 136.781L574.255 136.779C567.81 134.288 561.062 131.711 553.438 128.2V128.199C546.283 124.977 537.549 120.802 527.547 114.537L526.373 113.803V113.741C508.066 102.159 494.251 90.1396 484.381 80.1328Z" fill="#C1B265" stroke="#C1B265" stroke-width="5"/>
<path d="M303.983 159.481L307.563 161.814L307.565 161.816L308.807 162.62C321.664 170.888 341.748 181.861 366.58 188.989L367.806 189.337L367.812 189.339L367.82 189.341C386.929 194.822 401.784 196.533 415.31 197.615L417.998 197.824L418.039 197.827L418.081 197.832C431.23 199.269 444.178 200.685 457.181 207.999L457.8 208.352L457.802 208.354L458.821 208.958C469.6 215.522 487.925 231.887 501.131 270.92L501.889 273.16L501.824 273.186L501.971 273.515L499.799 274.567C494.524 277.125 489.388 280.067 484.579 282.931L484.557 282.943L484.533 282.956C483.537 283.522 482.553 284.088 481.562 284.658C480.572 285.227 479.576 285.801 478.564 286.375L478.552 286.382L478.538 286.39C475.435 288.102 472.389 289.865 469.346 291.732C466.348 293.748 463.276 295.669 460.289 297.589L460.281 297.595L460.273 297.6C453.486 301.889 446.511 306.344 440.091 311.159L440.052 311.188L440.012 311.216C423.089 322.911 405.705 336.943 385.365 355.498L385.359 355.504L383.624 357.077L380.571 359.845L379.526 355.859L378.929 353.58V353.579C374.378 336.372 374.888 322.754 375.377 309.879L375.378 309.853L375.38 309.826C375.486 308.023 375.538 306.269 375.593 304.472V304.456L375.594 304.44C376.137 291.732 376.683 279.25 370.324 264.864L370.319 264.853L370.314 264.84C366.098 255.018 361.365 250.877 354.399 244.667V244.666C346.831 237.975 337.278 229.517 324.315 210.458L324.31 210.45L326.383 209.053L324.31 210.449C315.951 198.048 310.04 186.408 305.923 176.933C305.915 176.92 305.906 176.904 305.895 176.887C305.87 176.849 305.846 176.812 305.828 176.785C305.819 176.772 305.812 176.761 305.808 176.754C305.806 176.751 305.804 176.749 305.803 176.747L305.802 176.745V176.746L303.207 172.857H304.203C303.26 170.551 302.436 168.404 301.734 166.448L300.27 162.434L297.698 155.387L303.983 159.481ZM325.045 196.884C326.823 199.863 328.749 202.915 330.838 206.019L331.993 207.701C343.82 224.769 352.537 232.458 359.61 238.751L360.93 239.911C367.456 245.669 372.923 250.944 377.564 261.667H377.563C384.706 277.82 384.062 291.749 383.465 304.717C383.437 305.621 383.396 306.522 383.356 307.407C383.316 308.311 383.275 309.202 383.249 310.102L383.248 310.115V310.129C382.806 321.091 382.381 332.07 385.027 345.188C402.844 329.241 418.459 316.651 433.756 306.004L433.734 305.961L435.418 304.711C438.52 302.408 441.697 300.189 444.878 298.056C439.326 282.191 431.712 269.266 421.587 258.633V258.632C418.59 255.531 416.119 253.373 413.697 251.274L412.604 250.356C401.399 241.055 393.362 237.295 382.967 232.541L382.961 232.539C376.822 229.714 369.798 226.476 361.022 221.54V221.539C355.562 218.535 345.297 212.826 333.822 204.097L333.813 204.091L335.336 202.107L333.813 204.09C330.667 201.674 327.744 199.257 325.045 196.884ZM314.924 175.441C320.005 181.448 327.522 189.266 337.566 197.078L338.698 197.949L338.701 197.952L339.727 198.73C348.922 205.661 357.315 210.51 362.762 213.554L364.981 214.789L364.988 214.792L364.995 214.796C373.468 219.569 380.324 222.676 386.415 225.504H386.414C397.076 230.413 405.797 234.392 417.774 244.415L418.944 245.404L418.952 245.411L418.961 245.418C421.294 247.446 423.803 249.593 426.822 252.705L427.433 253.34L427.437 253.344L428.477 254.457C438.496 265.341 446.142 278.33 451.773 293.823C453.246 292.864 454.733 291.901 456.197 290.981C459.23 289.032 462.252 287.089 465.219 285.147L465.235 285.136L465.253 285.125C468.407 283.133 471.67 281.308 474.792 279.532L474.803 279.525L474.814 279.52C476.744 278.447 478.726 277.323 480.652 276.199L482.269 275.233C485.478 273.328 488.865 271.405 492.362 269.577C479.494 234.105 462.646 220.232 453.89 215.179L453.885 215.176C442.262 208.431 431.013 207.151 417.31 205.628C402.905 204.486 386.86 202.898 365.813 196.896L365.806 196.918C345.345 191.182 327.98 182.923 314.924 175.441Z" fill="#C1B265" stroke="#C1B265" stroke-width="5"/>
<path d="M162.544 300.326L166.668 301.683L166.669 301.684L168.02 302.122C182.237 306.684 204.54 311.925 232.037 312.029H232.058L232.079 312.03C247.998 312.358 260.22 310.641 271.009 308.828L275.552 308.051C278.007 307.624 280.447 307.19 282.833 306.81L283.354 306.706L283.421 306.694C296.942 304.369 309.224 302.244 323.972 306.249L324.647 306.429C338.951 310.32 360.054 321.974 382.437 354.791L383.116 355.788L384.154 356.825L382.218 358.591C363.966 375.227 347.786 393.88 334.293 409.973L332.943 411.643C319.022 428.944 305.812 447.656 293.562 467.289L292.315 469.293L290.116 472.831L288.028 469.226L286.835 467.163L286.83 467.155L286.825 467.146C276.697 449.325 273.107 432.723 270.5 420.776L269.93 418.284C267.055 405.923 263.716 394.996 254.679 384.054L254.671 384.043L254.663 384.033C247.918 375.692 242.263 372.904 233.923 368.868V368.867C224.751 364.473 213.317 358.886 195.741 344.001L195.729 343.991C186.521 336.098 179.028 328.341 173.106 321.478V321.686L168.964 316.531L168.84 316.407L168.106 315.675V315.459C165.861 312.64 163.855 309.975 162.221 307.677L162.218 307.672L159.722 304.146L155.344 297.958L162.544 300.326ZM192.954 330.938C195.411 333.266 198.027 335.631 200.811 338.01L202.38 339.32C218.413 352.588 228.829 357.661 237.355 361.82H237.354C245.81 365.912 252.912 369.309 260.76 379.026L261.262 379.642C271.019 391.733 274.624 403.714 277.557 416.432L278.146 419.028L278.147 419.038L278.149 419.047C281.01 432.313 283.967 444.3 290.509 457.383C302.28 438.942 314.942 421.339 328.184 404.979L328.239 405.01C330.603 402.184 333.083 399.284 335.605 396.346C325.955 382.469 315.103 372.069 302.533 364.588L302.529 364.586C298.736 362.32 295.844 360.953 292.939 359.608L292.932 359.604C282.382 354.674 274.568 352.663 265.324 350.899V350.9C262.669 350.413 259.986 349.929 257.203 349.501L257.184 349.498L257.165 349.495C250.787 348.414 243.422 347.26 234.15 345.011L234.086 344.995L234.022 344.976L233.547 344.833C226.844 343.249 216.749 340.826 204.462 335.991L203.262 335.515L203.256 335.512C199.596 334.032 196.161 332.493 192.954 330.938ZM321.982 313.74C309.029 310.217 298.051 312.046 284.783 314.33L284.281 314.431L284.255 314.436L284.228 314.44C281.813 314.87 279.309 315.27 276.894 315.69L276.885 315.691C264.765 317.757 250.951 320.126 231.93 319.796L229.473 319.754V319.714C208.844 319.364 191.082 316.286 177.442 312.816C184.188 317.381 193.921 323.051 206.267 328.054L207.418 328.513C217.722 332.574 226.437 334.849 232.847 336.408L235.541 337.058L235.578 337.066L235.616 337.077L236.168 337.227C243.999 339.101 250.438 340.24 256.165 341.184L258.581 341.578L258.594 341.581L258.606 341.583C260.684 341.943 262.767 342.283 264.824 342.637L266.87 342.996L266.878 342.998L266.885 342.999C276.072 344.708 284.553 346.9 295.305 351.823L296.352 352.308L296.364 352.313L296.376 352.319C299.165 353.66 302.477 355.177 306.606 357.632L307.911 358.419C320.509 366.153 331.333 376.556 340.973 390.018C350.834 378.724 361.794 366.921 373.653 355.754C351.765 325.07 331.775 316.252 322.018 313.75L321.982 313.74Z" fill="#C1B265" stroke="#C1B265" stroke-width="5"/>
<path d="M222.476 436.229C237.23 436.229 260.354 441.942 290.389 467.2L291.475 468.113L292.447 468.721L292.363 468.86L292.476 468.955L292.065 469.364L291.201 470.822C266.593 512.332 248.064 554.862 236.113 597.174L237.084 598.145H235.841C235.733 598.529 235.625 598.913 235.519 599.297V599.3L234.868 601.633L233.739 605.682L230.72 602.758L228.983 601.075L228.978 601.069C222.342 594.6 216.69 587.786 211.704 580.196L211.694 580.183L211.686 580.168C208.107 574.552 205.138 569.108 202.322 563.964L202.319 563.957L200.638 560.864V560.863C197.556 555.241 194.21 549.412 190.097 543.98L190.093 543.974L190.088 543.968C185.906 538.375 181.161 533.785 175.515 529.812L175.507 529.807L175.5 529.801C166.864 523.632 160.662 522.512 151.439 520.84H151.438C141.46 519.031 128.865 516.759 107.929 507.198L107.923 507.195C94.4171 500.987 83.3955 494.13 75.0156 488.177C74.9997 488.17 74.9849 488.164 74.9727 488.159C74.9618 488.155 74.9528 488.152 74.9473 488.149C74.9446 488.148 74.9425 488.147 74.9414 488.146L73.3682 487.519V487.021C70.5089 484.958 67.9688 483.001 65.793 481.271L65.7871 481.265L65.7803 481.26L62.417 478.547L56.5576 473.82L64.0801 474.103L68.4209 474.266H68.4297L69.8047 474.316C84.2779 474.794 106.938 473.768 134.207 466.534C145.174 463.591 153.739 460.22 160.974 457.251L160.983 457.247L162.357 456.684C169.165 453.863 175.038 451.001 180.733 448.204L180.771 448.187L181.693 447.752C195.249 440.924 206.757 436.51 221.124 436.229H222.476ZM205.638 495.89C190.468 493.45 181.199 494.5 169.191 495.798L169.186 495.799C162.528 496.502 154.895 497.381 145.078 497.71L145.036 497.712H144.447C137.411 498.039 126.647 498.474 112.931 496.992V496.991C108.942 496.564 105.164 496.015 101.608 495.386C104.643 496.995 107.84 498.593 111.197 500.153L113.057 500.991C132.023 509.443 143.511 511.491 152.879 513.208H152.878C162.162 514.901 169.943 516.332 180.065 523.493H180.066C186.42 527.935 191.764 533.167 196.42 539.392L197.245 540.502C200.775 545.329 203.725 550.327 206.375 555.095L207.578 557.277L207.581 557.283L209.253 560.359L211.39 564.227C213.541 568.109 215.773 572.051 218.334 576.054C221.791 581.28 225.557 586.145 229.804 590.742C236.744 567.036 245.756 543.309 256.623 519.774C243.5 508.946 230.227 501.877 216.125 498.059L216.115 498.057C211.929 496.906 208.814 496.436 205.638 495.889V495.89ZM221.3 444.213C208.577 444.479 198.185 448.407 185.186 454.96L185.125 454.989L184.231 455.408L184.232 455.409C178.099 458.395 171.633 461.519 164.011 464.645L164.01 464.644C157.061 467.505 148.798 470.779 138.41 473.67L136.304 474.242C114.841 479.942 96.116 481.918 81.7705 482.311C89.5143 484.888 100.461 487.765 113.738 489.199H113.741L114.971 489.33C127.587 490.617 137.478 490.206 144.172 489.893L144.23 489.891H144.827C154.367 489.568 161.757 488.711 168.387 488.005H168.388L172.907 487.531C183.271 486.478 192.658 485.906 206.913 488.185H206.914C209.653 488.617 212.726 489.14 216.548 490.085L218.233 490.517L218.24 490.519L218.248 490.521C232.931 494.506 246.675 501.742 260.113 512.523C266.817 498.532 274.221 484.594 282.283 470.786C260.705 453.428 239.601 444.213 222.476 444.213H221.3Z" fill="#C1B265" stroke="#C1B265" stroke-width="5"/>
<path d="M158.24 589.017C178.116 583.423 204.541 587.648 232.623 600.368L234.093 601.033L235.11 601.339L234.43 603.714L232.005 612.173L226.122 637.807L221.476 663.745L218.127 689.879L216.776 707.394L216.773 707.43L216.77 707.466C215.969 714.988 215.862 722.681 215.698 730.261C215.644 734.453 215.534 738.592 215.371 742.73L215.37 742.741V742.751L215.261 745.03L215.067 749.094L211.529 747.085L209.522 745.945V745.944C192.58 736.582 181.62 725.332 172.177 715.618V715.617L171.442 714.884L171.422 714.864L171.402 714.844C161.96 704.969 153.188 696.661 138.913 691.712L138.902 691.708C128.805 688.153 122.533 688.699 113.283 689.613L113.268 689.615C103.183 690.547 90.531 691.756 67.7305 688.24L67.7197 688.238C53.044 685.91 40.5604 682.298 30.8477 678.883H30.835C30.835 678.883 30.835 678.883 30.835 678.878C30.7015 678.831 30.5679 678.786 30.4355 678.739L30.835 677.61V676.424L30.0371 678.624C26.2594 677.255 22.9124 675.938 20.0488 674.727V674.728L16.0342 673.046L8.87988 670.048L16.4375 668.304L20.6689 667.327C35.5688 663.788 58.253 656.493 81.8936 642.073L81.9072 642.064L81.9219 642.056L83.5654 641.073C100.354 630.932 111.103 621.322 120.701 612.721L120.71 612.712L120.72 612.704L122.511 611.131L122.521 611.121L122.533 611.111C133.193 601.966 142.778 593.754 157.283 589.295L157.291 589.293L157.299 589.29L158.24 589.017ZM167.848 650.103C164.241 650.203 161.393 650.486 158.637 650.813L158.623 650.815C143.139 652.565 134.72 656.034 123.702 660.517L123.703 660.518C117.504 663.073 110.372 665.981 100.938 668.997L100.918 669.004L100.896 669.011L100.387 669.163C93.5662 671.4 83.234 674.696 69.502 677.003H69.501C65.7113 677.638 61.9383 678.141 58.1943 678.515C61.5998 679.252 65.1618 679.932 68.8721 680.531L70.8965 680.834C88.8633 683.445 99.9335 682.923 108.712 682.16L112.478 681.815C116.21 681.437 119.793 681.099 123.455 681.099C128.876 681.099 134.473 681.848 141.42 684.33L142.168 684.594C157.754 690.187 167.327 699.309 176.986 709.396L177.745 710.155L177.771 710.181C185.914 718.573 194.886 727.773 207.664 735.825C207.705 733.93 207.738 732.034 207.769 730.112C207.877 722.486 208.039 714.536 208.861 706.725L210.217 689.104L210.395 686.796H210.562L213.648 662.557L213.657 662.489L213.67 662.423L214.129 659.906C199.049 653.295 184.716 650.071 170.388 650.071H169.441L167.848 650.103ZM225.538 605.853C190.916 591.051 169.177 593.884 159.451 596.788L159.452 596.789C146.684 600.682 138.047 608.025 127.604 616.999L125.895 618.55L125.885 618.559C116.054 627.38 104.847 637.459 87.1064 648.068V648.161L85.9072 648.893C67.6684 660.006 49.9827 667.018 35.7422 671.398C46.2205 671.885 57.1112 671.221 68.1855 669.359L68.1895 669.358L69.4131 669.15C81.9634 666.967 91.4986 663.891 97.9395 661.797L97.9668 661.788L97.9951 661.779L98.501 661.628C107.619 658.732 114.535 655.891 120.667 653.395C131.953 648.76 141.11 645.018 157.679 643.134L160.226 642.852C162.842 642.578 165.714 642.346 169.273 642.304H169.277L170.811 642.3C185.686 642.364 200.278 645.573 215.471 652.038L218.278 636.281L218.29 636.22L218.304 636.159L224.272 610.223L224.288 610.154L224.309 610.086L225.538 605.853Z" fill="#C1B265" stroke="#C1B265" stroke-width="5"/>
<path d="M747.999 1245C1023.59 1245 1247 1021.59 1247 746C1247 470.41 1023.59 247 747.999 247C472.409 247 249 470.41 249 746C249 1021.59 472.409 1245 747.999 1245Z" fill="#C1B265"/>
<path d="M740.373 855.162C729.521 855.162 706.245 855.162 693.223 854.837C683.51 854.62 676.673 852.178 672.441 847.349C668.589 842.954 667.071 836.66 667.939 828.684C669.566 813.655 678.301 808.012 696.966 809.965L699.951 810.29L699.788 813.275C699.571 818.646 699.408 824.452 700.981 826.026C701.795 826.839 703.966 827.165 707.981 827.002C717.476 826.677 720.841 825.212 720.732 817.887C720.624 808.554 716.229 799.547 708.741 793.145C701.633 787.068 692.681 784.246 684.108 785.494C676.294 786.58 668.427 788.641 660.831 790.649C657.195 791.626 653.505 792.602 649.816 793.416C580.419 809.856 523.231 784.463 488.885 721.903L487.908 720.167C483.404 711.92 478.684 703.401 473.313 695.696C460.453 677.411 446.997 672.474 429.526 679.744C412 687.015 403.319 704.161 406.9 724.453C411.621 751.583 422.798 760.915 458.772 768.077L464.035 769.108L460.563 773.232C445.316 791.137 401.854 811.159 377.492 811.43H374.779L374.345 808.771C373.26 802.206 372.174 795.532 371.143 788.913C368.702 773.72 366.152 757.985 363.385 742.576C360.834 728.306 360.617 710.509 381.995 699.494C388.072 696.347 393.335 690.596 398.381 685.062L400.607 682.674C435.386 645.127 437.72 613.82 408.963 571.119C407.986 569.654 407.064 568.134 406.195 566.724L403.753 562.763L405.435 561.027C442.331 522.286 512.868 508.504 585.086 525.813C650.847 541.548 700.059 579.42 713.624 624.618L716.5 634.276L708.578 627.982C641.461 574.428 566.747 563.305 486.39 594.83L483.242 596.078L482.212 592.876C481.127 589.567 480.367 586.203 479.607 583.001C478.088 576.49 476.731 570.902 473.584 567.863C470.98 565.367 460.888 565.584 454.594 568.297C449.765 570.413 443.688 575.08 446.944 591.52C450.796 610.999 461.973 619.517 480.801 617.564C494.257 616.208 507.876 612.681 521.006 609.317L525.564 608.123C587.473 592.28 672.116 615.99 707.113 691.084C709.826 696.944 712.973 702.75 715.957 708.393L716.88 710.183C725.996 727.275 747.481 725.918 747.644 725.864C759.093 725.593 769.022 719.733 775.045 709.804C778.572 703.944 781.556 697.758 784.758 690.867C819.754 615.773 904.398 592.062 966.307 607.906L970.918 609.1C984.048 612.464 997.614 615.991 1011.07 617.347C1030.01 619.246 1041.07 610.727 1044.93 591.303C1048.18 574.808 1042.1 570.142 1037.28 568.08C1031.04 565.367 1020.94 565.15 1018.29 567.646C1015.08 570.685 1013.78 576.273 1012.26 582.784C1011.5 585.986 1010.69 589.35 1009.66 592.659L1008.63 595.861L1005.48 594.613C925.124 563.034 850.41 574.211 783.293 627.765L775.37 634.059L778.246 624.401C791.756 579.203 841.024 541.331 906.785 525.596C979.058 508.287 1049.59 522.123 1086.43 560.81L1088.12 562.546L1085.68 566.507C1084.81 567.972 1083.88 569.491 1082.91 570.902C1054.21 613.603 1056.54 644.91 1091.26 682.457L1093.43 684.845C1098.48 690.379 1103.74 696.13 1109.82 699.277C1131.2 710.292 1130.98 728.089 1128.43 742.359C1125.66 757.822 1123.11 773.503 1120.67 788.696C1119.59 795.369 1118.56 801.989 1117.42 808.608L1116.98 811.267H1114.27C1089.96 810.942 1046.45 790.92 1031.2 773.015L1027.73 768.891L1032.99 767.86C1068.96 760.698 1080.14 751.311 1084.86 724.236C1088.39 703.944 1079.71 686.852 1062.24 679.527C1044.82 672.257 1031.31 677.194 1018.45 695.479C1013.02 703.184 1008.36 711.757 1003.8 720.004L1002.88 721.741C968.531 784.246 911.396 809.694 841.945 793.253C838.255 792.385 834.621 791.408 830.932 790.432C823.336 788.424 815.414 786.362 807.655 785.277C799.082 784.029 790.129 786.851 783.021 792.928C775.533 799.33 771.139 808.391 771.03 817.67C770.922 824.995 774.285 826.405 783.78 826.785C787.795 826.948 789.911 826.622 790.78 825.808C792.299 824.235 792.19 818.429 791.973 813.058L791.81 810.073L794.795 809.748C813.514 807.849 822.196 813.438 823.824 828.521C824.692 836.552 823.172 842.791 819.32 847.186C815.033 852.015 808.25 854.457 798.538 854.674C781.989 855 764.844 855.217 746.016 855.217C745.908 855.217 743.737 855.217 740.156 855.217L740.373 855.162ZM690.184 815.879C678.139 815.879 675.155 820.817 674.178 829.335C673.527 835.575 674.504 840.133 677.162 843.171C680.147 846.535 685.572 848.38 693.331 848.543C710.586 848.868 745.854 848.814 746.179 848.814C764.953 848.814 782.098 848.651 798.538 848.271C806.297 848.109 811.723 846.318 814.707 842.9C817.366 839.861 818.343 835.304 817.692 829.064C816.715 819.786 813.134 814.794 798.538 815.662C798.755 823.096 798.159 827.382 795.446 830.095C792.842 832.754 789.043 833.133 783.726 832.971C777.052 832.699 764.681 832.265 764.898 817.453C765.061 806.33 770.216 795.586 779.115 787.99C787.579 780.72 798.376 777.41 808.739 778.875C816.878 780.014 824.962 782.13 832.776 784.192C836.411 785.169 839.992 786.091 843.627 786.959C909.986 802.694 964.679 778.386 997.56 718.539L998.482 716.803C1003.09 708.393 1007.87 699.711 1013.46 691.681C1027.89 671.063 1044.71 665.149 1064.84 673.505C1084.92 681.86 1095.28 702.153 1091.26 725.105C1086.33 753.319 1074.12 765.039 1040.04 772.689C1056.05 787.556 1090.72 803.074 1111.83 804.593C1112.75 798.896 1113.67 793.199 1114.59 787.502C1117.04 772.255 1119.59 756.52 1122.35 741.057C1125.66 722.554 1121.27 712.028 1107.05 704.703C1099.95 701.068 1094.36 694.883 1088.88 688.914L1086.71 686.581C1049.97 646.918 1047.37 612.301 1077.75 567.212C1078.62 565.91 1079.44 564.553 1080.25 563.251C1044.44 527.44 977.32 515.015 908.303 531.51C849.758 545.509 804.833 577.358 788.067 615.936C853.882 567.321 926.643 557.717 1004.61 587.288C1005.15 585.226 1005.64 583.11 1006.13 581.102C1007.81 573.94 1009.44 567.158 1014 562.817C1019.37 557.717 1032.67 558.965 1039.83 562.057C1050.41 566.615 1054.26 576.816 1051.17 592.334C1046.72 614.96 1032.61 625.703 1010.47 623.478C996.528 622.067 982.746 618.486 969.344 615.068L964.733 613.874C905.374 598.682 824.04 621.362 790.454 693.363C787.144 700.417 784.106 706.819 780.417 712.896C773.363 724.508 761.209 731.67 747.916 731.995C746.993 732.05 722.306 733.677 711.237 712.951L710.314 711.16C707.275 705.463 704.074 699.549 701.307 693.526C667.775 621.525 586.443 598.845 527.029 614.037L522.471 615.231C509.069 618.703 495.233 622.23 481.343 623.641C459.259 625.866 445.152 615.122 440.649 592.497C437.61 576.979 441.409 566.778 451.989 562.22C459.151 559.127 472.499 557.934 477.816 562.98C482.374 567.321 483.947 574.049 485.629 581.265C486.118 583.273 486.606 585.334 487.149 587.451C565.064 557.88 637.824 567.483 703.694 616.099C686.928 577.521 642.003 545.671 583.458 531.673C514.441 515.124 447.323 527.603 411.513 563.414C412.272 564.716 413.086 566.073 414.008 567.375C444.339 612.464 441.734 647.081 405.055 686.744L402.885 689.131C397.459 695.1 391.816 701.231 384.762 704.92C370.601 712.245 366.152 722.771 369.462 741.274C372.229 756.792 374.779 772.526 377.221 787.719C378.143 793.416 379.066 799.113 379.988 804.81C401.095 803.291 435.712 787.773 451.772 772.906C417.698 765.256 405.49 753.536 400.552 725.322C396.537 702.316 406.9 682.077 426.976 673.722C447.105 665.312 463.925 671.28 478.358 691.898C483.947 699.874 488.722 708.61 493.334 716.966L494.311 718.702C527.192 778.495 581.884 802.803 648.242 787.122C651.878 786.254 655.459 785.332 659.094 784.355C666.907 782.293 674.937 780.177 683.13 779.038C693.439 777.573 704.292 780.937 712.756 788.153C721.601 795.749 726.809 806.492 726.971 817.615C727.188 832.428 714.763 832.862 708.144 833.133C702.881 833.296 699.083 832.916 696.424 830.258C693.712 827.491 693.114 823.258 693.331 815.825C692.192 815.771 691.161 815.716 690.13 815.716L690.184 815.879Z" fill="white"/>
<path d="M996.799 661.518C997.179 669.385 1000.06 678.121 997.614 685.012C978.027 740.247 938.146 779.096 869.835 781.7C853.177 777.143 835.707 774.321 820.026 767.539C802.555 759.943 802.119 749.362 818.831 740.735C870.377 714.04 922.519 688.376 974.824 663.091C980.956 660.107 989.42 661.897 996.799 661.518Z" fill="white"/>
<path d="M792.408 739.488L792.082 735.852C791.865 733.519 791.431 731.078 791.051 728.69C790.074 723.047 789.043 717.187 790.508 711.707C799.569 677.47 821.869 652.62 856.757 637.807C891.863 622.94 929.085 621.258 967.391 632.87C971.515 634.118 975.151 636.342 978.732 638.512C980.251 639.435 981.824 640.411 983.397 641.225L985.351 642.256L984.158 650.829L976.507 654.356C972.166 656.309 967.826 658.263 963.594 660.433C949.161 667.649 934.728 674.866 920.241 682.136C886.709 698.957 851.983 716.319 817.746 733.194C813.025 735.527 807.762 736.449 802.662 737.372C800.437 737.751 798.213 738.185 796.042 738.674L792.462 739.542L792.408 739.488ZM917.853 631.567C897.777 631.567 878.191 635.582 859.254 643.613C826.265 657.611 805.158 681.051 796.64 713.281C795.555 717.404 796.368 722.342 797.29 727.551C797.562 728.962 797.779 730.318 797.996 731.729C799.19 731.512 800.383 731.295 801.523 731.078C806.406 730.21 810.963 729.396 814.924 727.442C849.161 710.622 883.833 693.205 917.365 676.439C931.798 669.223 946.231 661.952 960.718 654.736C965.058 652.565 969.453 650.558 973.848 648.605L978.352 646.543L978.46 645.729C977.43 645.132 976.453 644.535 975.422 643.938C972.058 641.876 968.91 639.977 965.546 638.947C949.377 634.063 933.425 631.622 917.798 631.622L917.853 631.567Z" fill="white"/>
<path d="M742.434 780.347L741.456 778.937C740.317 777.309 738.906 775.681 737.495 773.999C733.752 769.604 729.9 765.101 730.28 760.109C730.822 753.164 738.797 743.777 745.526 742.149C750.68 740.956 755.672 742.149 759.307 745.459C763.214 748.986 765.06 754.52 764.246 760.272C763.54 765.372 760.067 769.658 756.757 773.782C755.455 775.464 754.099 777.092 752.96 778.774L752.038 780.13L742.379 780.293L742.434 780.347ZM749.488 748.063C748.674 748.063 747.859 748.172 747.045 748.335C742.921 749.311 736.953 756.365 736.628 760.651C736.465 762.985 739.612 766.674 742.379 769.93C743.519 771.286 744.712 772.643 745.743 773.999H748.782C749.758 772.588 750.844 771.232 751.929 769.875C754.859 766.24 757.626 762.822 758.114 759.404C758.656 755.768 757.571 752.296 755.184 750.179C753.664 748.769 751.711 748.063 749.595 748.063H749.488Z" fill="white"/>
<path d="M517.1 663.306C569.405 688.591 621.493 714.201 673.093 740.95C689.859 749.632 689.425 760.158 671.9 767.754C656.219 774.591 638.747 777.358 622.089 781.915C553.778 779.257 513.899 740.408 494.311 685.227C491.87 678.336 494.691 669.6 495.125 661.733C502.504 662.167 510.969 660.322 517.1 663.306Z" fill="white"/>
<path d="M699.569 739.709L695.988 738.841C693.818 738.298 691.593 737.918 689.369 737.538C684.269 736.616 679.005 735.694 674.285 733.361C639.993 716.486 605.268 699.123 571.682 682.249C557.25 675.033 542.871 667.816 528.438 660.6C524.206 658.484 519.865 656.531 515.524 654.523L507.874 650.996L506.681 642.423L508.633 641.392C510.207 640.524 511.727 639.602 513.3 638.679C516.827 636.509 520.516 634.284 524.639 633.036C563 621.479 600.222 623.107 635.273 637.974C670.162 652.732 692.462 677.637 701.523 711.874C702.988 717.354 701.956 723.214 700.98 728.857C700.546 731.245 700.166 733.686 699.949 736.019L699.623 739.655L699.569 739.709ZM513.625 646.764L518.128 648.826C522.523 650.833 526.972 652.841 531.259 655.011C545.691 662.228 560.071 669.444 574.504 676.66C608.09 693.481 642.761 710.898 677.052 727.718C681.013 729.671 685.625 730.485 690.454 731.353C691.647 731.57 692.841 731.787 693.98 732.004C694.197 730.648 694.415 729.237 694.686 727.826C695.609 722.617 696.476 717.68 695.337 713.556C686.764 681.272 665.712 657.833 632.723 643.888C599.029 629.618 563.272 628.045 526.376 639.168C523.012 640.199 519.864 642.098 516.5 644.16C515.524 644.756 514.494 645.353 513.517 645.95L513.625 646.764Z" fill="white"/>
<path d="M757.575 1018C752.583 1018 747.646 1018 742.654 1018C742.654 1018 706.354 1018 688.665 1018C639.127 1017.89 619.377 1004.22 600.55 957.07C593.821 940.304 593.171 928.747 598.38 920.717C603.48 912.849 613.898 908.834 631.044 908.183C665.932 906.827 745.366 907.803 746.993 907.858C757.737 907.858 768.535 907.749 779.278 907.641C803.586 907.424 828.762 907.207 853.449 908.129C870.649 908.834 881.013 912.795 886.113 920.663C891.322 928.693 890.616 940.25 883.942 957.016C865.114 1004.17 845.364 1017.84 795.826 1017.95H784.596C775.589 1018 766.636 1018.06 757.629 1018.06L757.575 1018ZM742.708 1011.65C756.653 1011.65 770.597 1011.65 784.541 1011.65H795.826C843.14 1011.49 860.069 999.772 878.083 954.629C883.889 940.142 884.757 930.104 880.85 924.027C876.998 918.113 867.99 914.966 853.232 914.369C828.653 913.392 803.586 913.609 779.333 913.88C768.535 913.989 757.737 914.097 746.993 914.097C746.18 914.097 666.258 913.066 631.369 914.423C616.611 915.02 607.604 918.167 603.751 924.081C599.79 930.158 600.713 940.142 606.519 954.683C624.532 999.826 641.461 1011.55 688.774 1011.65C706.462 1011.65 742.762 1011.65 742.762 1011.65H742.708Z" fill="white"/>
<path d="M743.9 993.908C742.544 993.908 741.188 993.908 739.885 993.908H729.63C692.734 992.932 650.793 986.692 643.359 972.042L641.026 967.484H843.41L841.077 972.042C832.341 989.459 777.703 994.017 743.846 994.017L743.9 993.908ZM653.613 973.724C665.008 981.158 694.09 986.583 729.738 987.452H739.94C781.773 987.94 817.855 982.243 830.931 973.67H653.613V973.724Z" fill="white"/>
<path d="M745.854 956.846C745.148 956.846 674.178 956.629 642.545 956.249C635.383 956.141 627.136 945.126 625.128 941.382C624.532 940.297 623.176 937.693 624.532 935.577L625.454 934.166H859.038L859.96 935.577C861.316 937.693 859.96 940.297 859.364 941.382C857.356 945.181 849.108 956.141 841.945 956.249C810.204 956.629 777.866 956.846 745.799 956.9L745.854 956.846ZM631.911 940.46C634.624 944.367 639.941 949.901 642.599 949.901C674.232 950.281 745.148 950.498 745.854 950.498C777.866 950.498 810.204 950.281 841.891 949.847C844.55 949.847 849.814 944.312 852.581 940.406H631.911V940.46Z" fill="white"/>
<path d="M791.54 522.887L785.625 517.732C760.069 495.649 731.855 495.703 700.331 518.112L694.308 522.399L695.393 515.074C696.478 507.749 700.059 493.967 712.159 483.604C728.816 469.334 754.21 467.543 771.193 479.426C787.416 490.766 790.346 509.539 790.888 515.019L791.594 522.833L791.54 522.887ZM745.474 477.852C734.406 477.852 723.608 482.139 716.283 488.433C709.066 494.618 705.323 502.269 703.37 508.508C732.127 490.549 758.876 490.386 783.075 507.695C781.176 500.695 776.943 491.2 767.557 484.635C760.774 479.86 753.071 477.907 745.474 477.907V477.852Z" fill="white"/>
<path d="M743.25 582.574C760.571 582.574 774.612 568.533 774.612 551.213C774.612 533.893 760.571 519.852 743.25 519.852C725.93 519.852 711.889 533.893 711.889 551.213C711.889 568.533 725.93 582.574 743.25 582.574Z" fill="white"/>

</svg>
